<svg xmlns="http://www.w3.org/2000/svg" version="1.1" xmlns:xlink="http://www.w3.org/1999/xlink" xmlns:svgjs="http://svgjs.dev/svgjs" width="1000" height="623" viewBox="0 0 1000 623"><g transform="matrix(1,0,0,1,-0.6060606060606233,0.2522267206477409)"><svg viewBox="0 0 396 247" data-background-color="#1b4571" preserveAspectRatio="xMidYMid meet" height="623" width="1000" xmlns="http://www.w3.org/2000/svg" xmlns:xlink="http://www.w3.org/1999/xlink"><g id="tight-bounds" transform="matrix(1,0,0,1,0.2400000000000091,-0.09999999999999432)"><svg viewBox="0 0 395.52 247.2" height="247.2" width="395.52"><g><svg></svg></g><g><svg viewBox="0 0 395.52 247.2" height="247.2" width="395.52"><g transform="matrix(1,0,0,1,114.29456949688472,47.215199999999996)"><svg viewBox="0 0 166.93086100623054 152.7696" height="152.7696" width="166.93086100623054"><g><svg viewBox="0 0 166.93086100623054 152.7696" height="152.7696" width="166.93086100623054"><g><svg viewBox="0 0 244.43136 223.69549207118902" height="152.7696" width="166.93086100623054"><g><svg viewBox="0 0 244.43136 223.69549207118902" height="223.69549207118902" width="244.43136"><g id="textblocktransform"><svg viewBox="0 0 244.43136 223.69549207118902" height="223.69549207118902" width="244.43136" id="textblock"><g><svg viewBox="0 0 244.43136 140.09523799873338" height="140.09523799873338" width="244.43136"><g transform="matrix(1,0,0,1,0,0)"><svg width="244.43136" viewBox="-0.10000000149011612 -40.70000076293945 78.94999694824219 45.25" height="140.09523799873338" data-palette-color="#ffffff"><path d="M45-33.95L45-33.95Q45-35.7 43.4-37.25L43.4-37.25Q41.1-39.45 37.05-39.45L37.05-39.45Q33.5-39.45 29.2-37.9L29.2-37.9Q26.95-37.1 25.3-35.7L25.3-35.7Q22.75-33.5 22.75-31.3L22.75-31.3Q22.75-28.35 26.5-26L26.5-26Q27.9-25.15 32.13-23.23 36.35-21.3 38.3-20.1L38.3-20.1Q41.25-18.3 42.38-16.25 43.5-14.2 43.5-12.45L43.5-12.45Q43.5-9.95 41.85-7.35L41.85-7.35Q38.95-2.7 33.35 0.65L33.35 0.65Q26.9 4.55 17.8 4.55L17.8 4.55Q9.05 4.55 3.9 0.1L3.9 0.1Q-0.1-3.3-0.1-8.65L-0.1-8.65Q-0.1-12.05 2.38-16.15 4.85-20.25 8.45-21.95L8.45-21.95Q9.2-22.25 9.58-22.15 9.95-22.05 8.95-21.2L8.95-21.2Q6.8-19.5 5.5-17.45L5.5-17.45Q2.7-13.05 2.7-7.9L2.7-7.9Q2.7-4.5 4.6-1.95L4.6-1.95Q8 2.6 16.4 3.2L16.4 3.2Q17.35 3.3 19.23 3.3 21.1 3.3 24.33 2.63 27.55 1.95 30.55 0.4L30.55 0.4Q37-3 38.9-8.4L38.9-8.4Q39.5-10 39.5-11.5L39.5-11.5Q39.5-14.9 36.45-17.5L36.45-17.5Q34.8-18.8 29.73-20.98 24.65-23.15 22.9-24.3L22.9-24.3Q19.05-26.9 19.05-30.45L19.05-30.45Q19.05-33.55 22.5-36.5L22.5-36.5Q27.45-40.7 36.5-40.7L36.5-40.7Q40.75-40.7 43.43-39.43 46.1-38.15 46.7-35.6L46.7-35.6Q46.8-35.1 46.8-34.6L46.8-34.6Q46.8-32.65 45-31.1L45-31.1Q43.75-30.1 41.65-29.5L41.65-29.5Q40.75-29.25 40.65-29.7L40.65-29.7Q40.55-30.35 41.9-30.5L41.9-30.5Q44.3-30.8 44.85-32.9L44.85-32.9Q45-33.45 45-33.95ZM57-17.5L57-17.5Q60.65-17.5 60.65-12.9L60.65-12.9Q60.65-10.8 59.55-8.4L59.55-8.4Q58.15-5.15 55.35-2.5L55.35-2.5Q56-1.25 57.7-1.25L57.7-1.25Q59.05-1.25 60.25-2.6L60.25-2.6Q61.75-4.15 62.4-5.33 63.05-6.5 63.35-7.05 63.65-7.6 64.12-8.63 64.6-9.65 64.7-9.88 64.8-10.1 65.05-10.1L65.05-10.1Q65.55-10.15 65.55-9.75L65.55-9.75Q65.55-9.6 65.45-9.4L65.45-9.4 65.15-8.7Q64.85-8 64.7-7.7 64.55-7.4 64.17-6.63 63.8-5.85 63.52-5.4 63.25-4.95 62.77-4.2 62.3-3.45 61.92-3 61.55-2.55 61-2 60.45-1.45 59.95-1.15L59.95-1.15Q58.7-0.4 57.6-0.4L57.6-0.4Q55.55-0.4 54.4-1.7L54.4-1.7Q52.1 0 50.15 0L50.15 0Q46.5 0 46.5-4.6L46.5-4.6Q46.5-6.7 47.6-9.1L47.6-9.1Q49.1-12.6 51.82-15.05 54.55-17.5 57-17.5ZM57.55-15.95L57.55-15.95Q56.2-15.95 54.35-14.15 52.5-12.35 51.05-9.25L51.05-9.25Q49.3-5.65 49.3-3.35 49.3-1.05 51.05-1.05L51.05-1.05Q52.3-1.05 53.85-2.4L53.85-2.4Q53.05-3.55 53.05-4.85L53.05-4.85Q53.15-7 54.8-7L54.8-7Q55.45-7 55.87-6.55 56.3-6.1 56.3-5.73 56.3-5.35 56.2-4.95L56.2-4.95Q57.05-6.2 58.15-8.5L58.15-8.5Q59.4-11.05 59.4-13.5 59.4-15.95 57.55-15.95ZM73.85-11.5L73.85-11.5Q75.6-13.6 75.6-15.05 75.6-16.5 74.4-16.5L74.4-16.5Q72.05-16.5 69.05-12.2L69.05-12.2Q68.1-10.85 67.2-8.65 66.3-6.45 66.3-4.67 66.3-2.9 67.02-1.8 67.75-0.7 69.27-0.7 70.8-0.7 72.1-1.43 73.4-2.15 74.57-3.73 75.75-5.3 76.35-6.35 76.95-7.4 78-9.5L78-9.5Q78.35-10.2 78.6-10.08 78.85-9.95 78.85-9.73 78.85-9.5 78.17-8.08 77.5-6.65 76.82-5.4 76.15-4.15 74.9-2.6L74.9-2.6Q72.65 0.2 68.75 0.2L68.75 0.2Q65.95 0.2 64.72-1.18 63.5-2.55 63.5-4.35L63.5-4.35Q63.5-6.55 64.57-9.15 65.65-11.75 67.05-13.65L67.05-13.65Q69.95-17.6 73.75-17.6L73.75-17.6Q75.6-17.6 76.42-16.73 77.25-15.85 77.25-14.7L77.25-14.7Q77.25-13 75.85-11.8L75.85-11.8Q75.15-11.15 74.67-11.15 74.2-11.15 73.85-11.5Z" opacity="1" transform="matrix(1,0,0,1,0,0)" fill="#ffffff" class="wordmark-text-0" data-fill-palette-color="primary" id="text-0"></path></svg></g></svg></g><g transform="matrix(1,0,0,1,0,173.16836140452236)"><svg viewBox="0 0 244.43136 50.52713066666666" height="50.52713066666666" width="244.43136"><g transform="matrix(1,0,0,1,0,0)"><svg width="244.43136" viewBox="3.200000047683716 -35.650001525878906 215.97999572753906 44.650001525878906" height="50.52713066666666" data-palette-color="#ffffff"><path d="M19.7-18.05L31.8-18.05 31.8-2Q29.85-0.95 26.5-0.28 23.15 0.4 19.75 0.4L19.75 0.4Q14.6 0.4 10.88-1.75 7.15-3.9 5.18-7.95 3.2-12 3.2-17.65L3.2-17.65Q3.2-23.25 5.15-27.33 7.1-31.4 10.78-33.52 14.45-35.65 19.45-35.65L19.45-35.65Q26.85-35.65 31.45-31.05L31.45-31.05 30.15-28.6Q27.65-30.9 25.1-31.9 22.55-32.9 19.4-32.9L19.4-32.9Q13.15-32.9 9.78-28.93 6.4-24.95 6.4-17.65L6.4-17.65Q6.4-10.2 9.83-6.25 13.25-2.3 19.75-2.3L19.75-2.3Q22.25-2.3 24.65-2.73 27.05-3.15 29-3.9L29-3.9 29-15.45 19.7-15.45 19.7-18.05ZM49.6 0.35Q46.25 0.35 43.72-1.2 41.2-2.75 39.8-5.6 38.4-8.45 38.4-12.25L38.4-12.25Q38.4-16.05 39.8-18.9 41.2-21.75 43.72-23.3 46.25-24.85 49.6-24.85L49.6-24.85Q52.9-24.85 55.45-23.3 58-21.75 59.37-18.9 60.75-16.05 60.75-12.25L60.75-12.25Q60.75-8.45 59.37-5.6 58-2.75 55.45-1.2 52.9 0.35 49.6 0.35L49.6 0.35ZM49.55-2.35Q53.4-2.35 55.5-4.9 57.6-7.45 57.6-12.25L57.6-12.25Q57.6-16.95 55.47-19.58 53.35-22.2 49.6-22.2L49.6-22.2Q45.8-22.2 43.7-19.58 41.6-16.95 41.6-12.25L41.6-12.25Q41.6-7.45 43.65-4.9 45.7-2.35 49.55-2.35L49.55-2.35ZM76.85 0.35Q73.5 0.35 70.97-1.2 68.45-2.75 67.05-5.6 65.65-8.45 65.65-12.25L65.65-12.25Q65.65-16.05 67.05-18.9 68.45-21.75 70.97-23.3 73.5-24.85 76.85-24.85L76.85-24.85Q80.15-24.85 82.7-23.3 85.25-21.75 86.62-18.9 88-16.05 88-12.25L88-12.25Q88-8.45 86.62-5.6 85.25-2.75 82.7-1.2 80.15 0.35 76.85 0.35L76.85 0.35ZM76.8-2.35Q80.65-2.35 82.75-4.9 84.85-7.45 84.85-12.25L84.85-12.25Q84.85-16.95 82.72-19.58 80.6-22.2 76.85-22.2L76.85-22.2Q73.05-22.2 70.95-19.58 68.85-16.95 68.85-12.25L68.85-12.25Q68.85-7.45 70.9-4.9 72.95-2.35 76.8-2.35L76.8-2.35ZM112.04-35.25L115.09-35.25 115.09 0 112.04 0 112.04-4.65Q110.94-2.2 108.79-0.93 106.64 0.35 103.69 0.35L103.69 0.35Q100.49 0.35 98.04-1.23 95.59-2.8 94.24-5.68 92.89-8.55 92.89-12.35L92.89-12.35Q92.89-16.1 94.24-18.93 95.59-21.75 98.04-23.3 100.49-24.85 103.69-24.85L103.69-24.85Q106.64-24.85 108.79-23.58 110.94-22.3 112.04-19.85L112.04-19.85 112.04-35.25ZM104.09-2.35Q107.89-2.35 109.97-4.93 112.04-7.5 112.04-12.25L112.04-12.25Q112.04-17 109.99-19.6 107.94-22.2 104.14-22.2L104.14-22.2Q100.29-22.2 98.19-19.63 96.09-17.05 96.09-12.35L96.09-12.35Q96.09-7.6 98.19-4.98 100.29-2.35 104.09-2.35L104.09-2.35ZM136.24 0L136.24-35.25 147.59-35.25Q155.99-35.25 160.54-30.68 165.09-26.1 165.09-17.65L165.09-17.65Q165.09-9.2 160.51-4.6 155.94 0 147.59 0L147.59 0 136.24 0ZM139.34-2.7L147.44-2.7Q154.59-2.7 158.21-6.45 161.84-10.2 161.84-17.65L161.84-17.65Q161.84-32.55 147.44-32.55L147.44-32.55 139.34-32.55 139.34-2.7ZM181.84-24.85Q186.24-24.85 188.41-22.55 190.59-20.25 190.59-15.6L190.59-15.6 190.59 0 187.59 0 187.59-4.35Q186.54-2.1 184.54-0.88 182.54 0.35 179.94 0.35L179.94 0.35Q177.59 0.35 175.64-0.6 173.69-1.55 172.56-3.25 171.44-4.95 171.44-7L171.44-7Q171.44-9.7 172.84-11.2 174.24-12.7 177.49-13.35 180.74-14 186.54-14L186.54-14 187.59-14 187.59-15.85Q187.59-19.15 186.24-20.68 184.89-22.2 181.99-22.2L181.99-22.2Q179.79-22.2 177.76-21.58 175.74-20.95 173.59-19.55L173.59-19.55 172.44-21.9Q174.29-23.25 176.84-24.05 179.39-24.85 181.84-24.85L181.84-24.85ZM180.19-2.3Q183.44-2.3 185.51-4.5 187.59-6.7 187.59-10.1L187.59-10.1 187.59-11.75 186.64-11.75Q181.84-11.75 179.29-11.35 176.74-10.95 175.69-9.98 174.64-9 174.64-7.15L174.64-7.15Q174.64-5.05 176.24-3.68 177.84-2.3 180.19-2.3L180.19-2.3ZM207.33-3.1L216.08-24.25 219.18-24.25 204.88 9 201.78 9 205.73 0 195.33-24.25 198.58-24.25 207.33-3.1Z" opacity="1" transform="matrix(1,0,0,1,0,0)" fill="#ffffff" class="slogan-text-1" data-fill-palette-color="secondary" id="text-1"></path></svg></g></svg></g></svg></g></svg></g></svg></g></svg></g></svg></g><g><path d="M0 123.6c0-68.262 55.338-123.6 123.6-123.6 33.989 0 64.773 13.719 87.118 35.922h-6.237c-21.259-19.621-49.67-31.608-80.881-31.608-65.88 0-119.286 53.406-119.286 119.286 0 65.88 53.406 119.286 119.286 119.286 31.211 0 59.622-11.987 80.881-31.608h6.237c-22.345 22.203-53.129 35.922-87.118 35.922-68.262 0-123.6-55.338-123.6-123.6z" fill="#ffffff" stroke="transparent" data-fill-palette-color="tertiary"></path></g></svg></g><defs></defs></svg><rect width="395.52" height="247.2" fill="none" stroke="none" visibility="hidden"></rect></g></svg></g></svg>