<svg xmlns="http://www.w3.org/2000/svg" version="1.1" xmlns:xlink="http://www.w3.org/1999/xlink" xmlns:svgjs="http://svgjs.dev/svgjs" width="1000" height="305" viewBox="0 0 1000 305"><g transform="matrix(1,0,0,1,-0.606060383849524,0.5534545296046929)"><svg viewBox="0 0 396 121" data-background-color="#e8772e" preserveAspectRatio="xMidYMid meet" height="305" width="1000" xmlns="http://www.w3.org/2000/svg" xmlns:xlink="http://www.w3.org/1999/xlink"><g id="tight-bounds" transform="matrix(1,0,0,1,0.24000008799566785,-0.2195672068267811)"><svg viewBox="0 0 395.52 121.43913441365353" height="121.43913441365353" width="395.52"><g><svg viewBox="0 0 395.52 121.43913441365353" height="121.43913441365353" width="395.52"><g><svg viewBox="0 0 602.1075333074924 184.86907784385605" height="121.43913441365353" width="395.52"><g transform="matrix(1,0,0,1,0,25.54992320417982)"><svg viewBox="0 0 395.52 133.7692314354964" height="133.7692314354964" width="395.52"><g id="textblocktransform"><svg viewBox="0 0 395.52 133.7692314354964" height="133.7692314354964" width="395.52" id="textblock"><g><svg viewBox="0 0 395.52 91.99772727272727" height="91.99772727272727" width="395.52"><g transform="matrix(1,0,0,1,0,0)"><svg width="395.52" viewBox="2.1500000953674316 -32.04999923706055 140.79000854492188 32.75" height="91.99772727272727" data-palette-color="#ffffff"><path d="M26.05-9.05Q26.05-6.7 24.98-5.03 23.9-3.35 21.45-1.95L21.45-1.95Q19.8-0.95 17.6-0.45 15.4 0.05 13.15 0.05L13.15 0.05Q10.85 0.05 7.45-1.45L7.45-1.45Q5-2.65 3.58-4.3 2.15-5.95 2.15-7.9L2.15-7.9Q2.15-9.25 2.75-9.88 3.35-10.5 4.7-10.5L4.7-10.5Q5.4-10.5 6.15-9.93 6.9-9.35 7.05-8.8L7.05-8.8Q7.75-6.75 9.5-5.68 11.25-4.6 13.85-4.6L13.85-4.6Q16.85-4.6 18.88-5.7 20.9-6.8 20.9-8.65L20.9-8.65Q20.9-10.45 18.7-11.85 16.5-13.25 14.2-13.8L14.2-13.8Q10.9-14.7 8.35-15.95L8.35-15.95Q5.7-17.25 4.4-19.15 3.1-21.05 3.1-23.15L3.1-23.15Q3.1-25.1 4.45-27.13 5.8-29.15 7.65-30.05L7.65-30.05Q8.65-30.55 11.08-31.13 13.5-31.7 14.6-31.7L14.6-31.7Q16.05-31.7 17.8-31.35 19.55-31 20.65-30.35L20.65-30.35Q22.85-29.1 23.9-28.1 24.95-27.1 24.95-25.6L24.95-25.6Q24.95-24.7 24.28-24 23.6-23.3 21.95-23.3L21.95-23.3Q21.55-23.3 21.15-23.65 20.75-24 20.15-24.7L20.15-24.7Q19.35-25.75 18.6-26.1L18.6-26.1Q17.85-26.35 16.43-26.65 15-26.95 13.9-26.95L13.9-26.95Q12.7-26.95 11.4-26.45 10.1-25.95 9.22-25.03 8.35-24.1 8.35-22.9L8.35-22.9Q8.35-21.9 9.28-21.18 10.2-20.45 11.5-20L11.5-20Q13-19.4 14.75-18.95L14.75-18.95Q17.05-18.25 18.53-17.68 20-17.1 21.4-16.25L21.4-16.25Q23.85-14.8 24.95-13.28 26.05-11.75 26.05-9.05L26.05-9.05ZM54.5-0.75Q53.85-1.6 53.4-2.63 52.95-3.65 52.45-5.1L52.45-5.1Q52.35-5.35 51.87-6.6 51.4-7.85 50.8-8.75L50.8-8.75Q47.65-8.3 45.65-8.3L45.65-8.3Q44.55-8.3 43.22-8.38 41.9-8.45 41.25-8.45L41.25-8.45Q38.75-8.65 37.25-8.65L37.25-8.65Q36.65-7.85 36.22-6.95 35.8-6.05 35.15-4.25L35.15-4.25Q34.25-1.65 33.6-0.55L33.6-0.55Q33.15 0.2 31.85 0.2L31.85 0.2Q30.75 0.2 29.82-0.28 28.9-0.75 28.9-1.6L28.9-1.6Q29.3-3.5 30.17-5.63 31.05-7.75 32.7-11.3L32.7-11.3 34.7-16.2Q36.35-20.4 37.72-23.4 39.1-26.4 41.35-30.5L41.35-30.5Q41.65-31.1 42.35-31.53 43.05-31.95 43.9-31.95L43.9-31.95Q44.85-31.95 45.27-31.83 45.7-31.7 45.95-31.43 46.2-31.15 46.7-30.3L46.7-30.3Q48.4-27.65 49.62-24.85 50.85-22.05 52.75-17.1L52.75-17.1 53.8-14.45Q55.2-10.85 56.22-8.43 57.25-6 58.5-4L58.5-4Q59.3-2.7 59.3-2.2L59.3-2.2Q59.3-1 58.57-0.38 57.85 0.25 56.7 0.25L56.7 0.25Q55.25 0.25 54.5-0.75L54.5-0.75ZM49.35-12.85Q48.55-14.55 47.05-18.75L47.05-18.75Q45.5-23.25 43.95-25.9L43.95-25.9Q43-23.5 41.15-19.7L41.15-19.7Q39.9-17.35 38.3-12.9L38.3-12.9Q41.5-12.5 45.2-12.5L45.2-12.5Q47.85-12.5 49.35-12.85L49.35-12.85ZM81.39-4.4Q80.8-4.25 79.5-3.35L79.5-3.35Q77.05-1.85 75.22-1.07 73.39-0.3 71.25-0.3L71.25-0.3Q69.14-0.3 67.12-1.33 65.09-2.35 63.82-4.15 62.55-5.95 62.55-8.15L62.55-8.15Q62.55-11 64.19-13.53 65.84-16.05 67.8-17.85L67.8-17.85Q65.8-21.75 65.8-25.3L65.8-25.3Q65.8-27.25 66.44-29L66.44-29Q67-30.6 68.05-31.33 69.09-32.05 70.89-32.05L70.89-32.05Q72.94-32.05 74.47-31.15 76-30.25 77.39-28.75L77.39-28.75Q78.94-27.15 78.94-24.7L78.94-24.7Q78.94-23.35 78.12-21.93 77.3-20.5 75.75-18.5L75.75-18.5Q75.5-18.15 75-17.63 74.5-17.1 74.3-16.85L74.3-16.85Q75.34-15 77.09-13.3 78.84-11.6 80.25-10.8L80.25-10.8Q80.84-11.2 81.37-11.88 81.89-12.55 82.75-13.85L82.75-13.85Q84-15.75 84.84-16.68 85.69-17.6 86.84-17.6L86.84-17.6Q88-17.6 88.67-17.18 89.34-16.75 89.34-15.9L89.34-15.9Q89.34-15.45 89.14-14.95 88.94-14.45 88.89-14.35L88.89-14.35Q88.44-13.4 87.87-12.63 87.3-11.85 86.19-10.55L86.19-10.55Q84.44-8.45 84.05-7.85L84.05-7.85Q85.5-6.4 88.19-5.15L88.19-5.15Q88.69-4.85 89.52-4.42 90.34-4 90.89-3.6L90.89-3.6Q91.59-3.2 91.59-2L91.59-2Q91.59-0.75 90.89-0.03 90.19 0.7 89.25 0.7L89.25 0.7Q87.94 0.7 86.77-0.08 85.59-0.85 83.84-2.4L83.84-2.4Q82.05-4 81.39-4.4L81.39-4.4ZM71.59-27.9Q70.64-26.95 70.64-25L70.64-25Q70.64-23.85 71.02-22.73 71.39-21.6 71.94-20.85L71.94-20.85Q73-21.55 73.64-22.8 74.3-24.05 74.3-25.3L74.3-25.3Q74.3-26.45 73.57-27.15 72.84-27.85 71.59-27.9L71.59-27.9ZM71.75-4.5Q73-4.5 74.39-5.38 75.8-6.25 77-7.4L77-7.4Q75.3-8.7 72.55-11.55L72.55-11.55Q72.09-12.1 70.39-13.8L70.39-13.8Q69.3-12.6 68.55-11 67.8-9.4 67.8-8.05L67.8-8.05Q67.8-6.6 69-5.55 70.19-4.5 71.75-4.5L71.75-4.5ZM104.04-27.6Q103.89-24.4 103.89-21.45L103.89-21.45Q103.89-18.4 104.29-12.5L104.29-12.5Q104.34-11.6 104.49-8.88 104.64-6.15 104.64-3.9L104.64-3.9Q105.14-3.95 105.72-4.05 106.29-4.15 106.59-4.15L106.59-4.15Q107.69-4.15 108.34-3.6 108.99-3.05 108.99-1.9L108.99-1.9Q108.99-1.15 108.39-0.75 107.79-0.35 106.32-0.18 104.84 0 102.04 0L102.04 0Q98.94 0 97.39-0.2 95.84-0.4 95.24-0.98 94.64-1.55 94.64-2.7L94.64-2.7Q94.64-3.55 95.19-3.85 95.74-4.15 96.74-4.15L96.74-4.15 97.79-4.1 99.44-4 99.19-9.9Q98.89-14.7 98.89-18.7L98.89-18.7Q98.89-20.85 99.04-24.6L99.04-24.6 99.14-27.35Q97.44-27.25 96.49-27.25L96.49-27.25Q95.39-27.25 95.02-27.65 94.64-28.05 94.64-29.3L94.64-29.3Q94.64-30.7 96.57-31.1 98.49-31.5 102.44-31.5L102.44-31.5Q105.49-31.5 107.02-31.3 108.54-31.1 108.54-30.4L108.54-30.4Q108.54-28.7 107.82-28.18 107.09-27.65 105.04-27.65L105.04-27.65 104.04-27.6ZM137.59-24.05Q135.44-25.6 133.89-26.33 132.34-27.05 130.29-27.05L130.29-27.05Q126.19-27.05 123.24-24.95L123.24-24.95Q120.99-23.3 119.89-20.65 118.79-18 118.79-14.7L118.79-14.7Q118.79-11.55 120.24-9.18 121.69-6.8 123.99-5.55 126.29-4.3 128.79-4.3L128.79-4.3Q131.29-4.3 133.12-5.08 134.94-5.85 136.04-7.1L136.04-7.1Q137.74-9.25 137.74-12.8L137.74-12.8Q137.74-13.3 136.94-13.5 136.14-13.7 134.64-13.7L134.64-13.7 131.04-13.65Q129.59-13.65 128.74-14.2 127.89-14.75 127.89-15.6L127.89-15.6Q127.89-16.8 128.69-17.38 129.49-17.95 130.84-17.95L130.84-17.95Q132.44-17.95 135.14-17.75L135.14-17.75Q137.84-17.55 139.04-17.55L139.04-17.55Q140.79-17.55 141.87-16.45 142.94-15.35 142.94-13.25L142.94-13.25Q142.94-11.3 142.09-8.7 141.24-6.1 139.69-4.05L139.69-4.05Q138.19-2.05 135.27-1.03 132.34 0 128.79 0L128.79 0Q125.84 0 123.09-0.95 120.34-1.9 118.49-3.6L118.49-3.6Q116.19-5.75 114.87-8.72 113.54-11.7 113.54-14.65L113.54-14.65Q113.54-18.95 115.57-23.03 117.59-27.1 121.04-29.35L121.04-29.35Q122.54-30.35 125.24-31 127.94-31.65 130.19-31.65L130.19-31.65Q133.69-31.65 136.34-30.58 138.99-29.5 140.39-27.5L140.39-27.5Q140.99-26.6 140.99-25.9L140.99-25.9Q140.99-25.1 140.29-24.4 139.59-23.7 138.89-23.7L138.89-23.7Q138.59-23.7 138.19-23.8 137.79-23.9 137.59-24.05L137.59-24.05Z" opacity="1" transform="matrix(1,0,0,1,0,0)" fill="#ffffff" class="wordmark-text-0" data-fill-palette-color="primary" id="text-0"></path></svg></g></svg></g><g transform="matrix(1,0,0,1,94.9248,113.71618273636363)"><svg viewBox="0 0 300.5952 20.053048699132752" height="20.053048699132752" width="300.5952"><g transform="matrix(1,0,0,1,0,0)"><svg width="300.5952" viewBox="-0.8500000238418579 -33.650001525878906 674.47998046875 45" height="20.053048699132752" data-palette-color="#ffffff"><path d="M21.85-11.1Q15.3-10 11.4-9.1L11.4-9.1Q10.2-7.2 9.85-6.55L9.85-6.55Q8.8-4.7 7.98-3.48 7.15-2.25 6.2-1.3L6.2-1.3Q5.15-0.25 4.48 0.2 3.8 0.65 2.9 0.65L2.9 0.65Q1.4 0.65 0.28-0.03-0.85-0.7-0.85-1.4L-0.85-1.4Q-0.75-1.5 0.25-3.63 1.25-5.75 3.95-8.95L3.95-8.95Q3.95-9.35 3.7-9.95 3.45-10.55 3.45-10.65L3.45-10.65Q3.45-12.1 8-14.15L8-14.15Q10.55-17.95 13.38-21.65 16.2-25.35 20.3-30.4L20.3-30.4Q21.3-31.65 22.85-32.45 24.4-33.25 25.95-33.25L25.95-33.25Q27.55-33.25 28.35-32.95 29.15-32.65 29.38-32.15 29.6-31.65 29.6-30.75L29.6-30.75Q29.4-29.25 29.35-28.5L29.35-28.5Q28.6-22.45 28.23-18.13 27.85-13.8 27.85-9.5L27.85-9.5Q27.85-5.55 28.2-2.25L28.2-2.25Q28.05-1.05 27.15-0.08 26.25 0.9 25.05 0.9L25.05 0.9Q22.75 0.9 22.03-0.25 21.3-1.4 21.3-4.15L21.3-4.15Q21.3-6.15 21.85-11.1L21.85-11.1ZM15.35-14.85Q16.25-15.05 18.1-15.3L18.1-15.3 22.1-15.9Q22.55-22.85 23.15-25.9L23.15-25.9Q21.2-23.6 15.35-14.85L15.35-14.85ZM39.6-1.9Q39.55-1.6 39.37-0.73 39.2 0.15 38.52 0.5 37.85 0.85 36.4 0.85L36.4 0.85Q34.75 0.85 34 0.5 33.25 0.15 33.25-1L33.25-1 35.65-10.55Q37.65-18.8 38.3-21.05L38.3-21.05 37.05-22.55Q36.9-22.7 36.9-22.9L36.9-22.9Q36.9-23.4 38-23.73 39.1-24.05 41.05-24.05L41.05-24.05Q42.8-24.05 43.4-23.08 44-22.1 44.15-20.55L44.15-20.55 43.8-19.25Q45.4-21.2 47.52-22.48 49.65-23.75 51.3-23.75L51.3-23.75Q53.45-23.75 54.65-23 55.85-22.25 55.85-21.05L55.85-21.05Q55.85-20 55.12-18.88 54.4-17.75 53.3-16.98 52.2-16.2 51.15-16.1L51.15-16.1Q50.15-16.1 49.8-16.35 49.45-16.6 49.45-17.1L49.45-17.1 49.75-18.75Q45.75-17.65 42.5-13.45L42.5-13.45 39.6-1.9ZM63.4 1.05Q58.5 1.05 56.25-0.9 54-2.85 54-6.1L54-6.1Q54-10.85 56.37-14.9 58.75-18.95 62.72-21.33 66.7-23.7 71.3-23.7L71.3-23.7Q74.1-23.7 76-22.13 77.9-20.55 77.9-17.5L77.9-17.5Q77.9-15.75 76.77-14.63 75.65-13.5 73.55-12.63 71.45-11.75 66.75-10.15L66.75-10.15Q62.5-8.75 59.85-7.8L59.85-7.8Q59.65-7.05 59.65-6.25L59.65-6.25Q59.65-4.85 60.82-4.1 62-3.35 64.15-3.35L64.15-3.35Q65.5-3.35 67.25-3.9 69-4.45 69.45-5.3L69.45-5.3Q71.15-8.4 72.55-8.4L72.55-8.4Q74.6-8.4 75.32-7.63 76.05-6.85 76.1-5.9L76.1-5.9Q75.5-4.3 73.75-2.68 72-1.05 69.3 0 66.6 1.05 63.4 1.05L63.4 1.05ZM61.25-12.4Q66.2-14 69.4-15.38 72.6-16.75 72.6-18.1L72.6-18.1Q72.6-18.7 71.95-19.07 71.3-19.45 70.55-19.45L70.55-19.45Q69.05-19.45 67.12-18.3 65.2-17.15 63.55-15.5 61.9-13.85 61.25-12.4L61.25-12.4ZM102.59 1.05Q98.19 1.05 95.74-1.95 93.29-4.95 93.29-9.6L93.29-9.6Q93.29-13.5 95.17-16.95 97.04-20.4 100.29-22.5 103.54-24.6 107.44-24.6L107.44-24.6Q111.29-24.6 113.77-22.08 116.24-19.55 116.24-14.65L116.24-14.65Q116.24-11.2 114.34-7.5 112.44-3.8 109.27-1.38 106.09 1.05 102.59 1.05L102.59 1.05ZM103.34-2.95Q104.94-2.95 106.57-4.95 108.19-6.95 109.24-10 110.29-13.05 110.29-15.95L110.29-15.95Q110.29-20.4 106.59-20.4L106.59-20.4Q104.54-20.4 102.84-18.45 101.14-16.5 100.14-13.63 99.14-10.75 99.14-8.25L99.14-8.25Q99.14-6.8 99.79-5.58 100.44-4.35 101.42-3.65 102.39-2.95 103.34-2.95L103.34-2.95ZM123.94-2.2Q123.89-1.9 122.61 3.28 121.34 8.45 120.84 9.8L120.84 9.8Q120.64 10.35 119.64 10.63 118.64 10.9 118.19 10.9L118.19 10.9Q117.09 10.9 116.36 10.2 115.64 9.5 115.59 8.1L115.59 8.1 119.09-6.25Q121.09-14.1 122.39-19.65L122.39-19.65Q122.39-19.95 122.04-21.25L122.04-21.25Q121.89-22.05 121.74-22.75 121.59-23.45 121.54-23.8L121.54-23.8Q121.64-24.45 122.56-24.85 123.49-25.25 124.29-25.25L124.29-25.25Q125.49-25.25 126.66-24.4 127.84-23.55 127.99-22.35L127.99-22.35 127.84-21.05Q130.09-23.85 133.59-23.85L133.59-23.85Q136.44-23.85 138.51-22.48 140.59-21.1 141.69-18.78 142.79-16.45 142.79-13.65L142.79-13.65Q142.79-9.9 141.34-6.6 139.89-3.3 136.99-1.28 134.09 0.75 129.99 0.75L129.99 0.75Q128.69 0.75 126.64-0.13 124.59-1 123.94-2.2L123.94-2.2ZM125.49-8.55Q125.39-7.95 125.39-7.7L125.39-7.7Q125.44-6.45 126.21-5.5 126.99-4.55 128.04-4.03 129.09-3.5 129.79-3.5L129.79-3.5Q131.99-3.5 133.66-5.18 135.34-6.85 136.24-9.33 137.14-11.8 137.14-14.05L137.14-14.05Q137.14-16.15 136.01-17.78 134.89-19.4 133.19-19.4L133.19-19.4Q131.29-19.4 130.06-18.57 128.84-17.75 127.29-16.05L127.29-16.05 125.49-8.55ZM153.89 1.05Q148.99 1.05 146.74-0.9 144.49-2.85 144.49-6.1L144.49-6.1Q144.49-10.85 146.86-14.9 149.24-18.95 153.21-21.33 157.19-23.7 161.79-23.7L161.79-23.7Q164.59-23.7 166.49-22.13 168.39-20.55 168.39-17.5L168.39-17.5Q168.39-15.75 167.26-14.63 166.14-13.5 164.04-12.63 161.94-11.75 157.24-10.15L157.24-10.15Q152.99-8.75 150.34-7.8L150.34-7.8Q150.14-7.05 150.14-6.25L150.14-6.25Q150.14-4.85 151.31-4.1 152.49-3.35 154.64-3.35L154.64-3.35Q155.99-3.35 157.74-3.9 159.49-4.45 159.94-5.3L159.94-5.3Q161.64-8.4 163.04-8.4L163.04-8.4Q165.09-8.4 165.81-7.63 166.54-6.85 166.59-5.9L166.59-5.9Q165.99-4.3 164.24-2.68 162.49-1.05 159.79 0 157.09 1.05 153.89 1.05L153.89 1.05ZM151.74-12.4Q156.69-14 159.89-15.38 163.09-16.75 163.09-18.1L163.09-18.1Q163.09-18.7 162.44-19.07 161.79-19.45 161.04-19.45L161.04-19.45Q159.54-19.45 157.61-18.3 155.69-17.15 154.04-15.5 152.39-13.85 151.74-12.4L151.74-12.4ZM173.63-22.85Q173.48-23 173.48-23.2L173.48-23.2Q173.48-23.7 174.58-24.03 175.68-24.35 177.63-24.35L177.63-24.35Q179.43-24.35 180.28-23.43 181.13-22.5 181.28-21.2L181.28-21.2 180.38-17.95Q181.43-19.4 183.33-20.73 185.23-22.05 187.18-22.85 189.13-23.65 190.38-23.65L190.38-23.65Q193.03-23.65 194.23-22.68 195.43-21.7 195.43-19.6L195.43-19.6Q192.48-11.9 191.53-3L191.53-3 192.23-0.55Q191.63 0.6 190.56 1.28 189.48 1.95 187.43 1.95L187.43 1.95Q186.23 1.95 185.68 1.15 185.13 0.35 185.13-0.85L185.13-0.85Q185.13-4.2 186.11-8.22 187.08-12.25 188.38-16.45L188.38-16.45Q188.88-18.05 188.88-18.1L188.88-18.1Q188.88-18.8 188.08-18.8L188.08-18.8Q186.98-18.8 184.76-17.25 182.53-15.7 180.18-12.03 177.83-8.35 176.38-2.4L176.38-2.4Q176.28-2.1 176.13-1.3 175.98-0.5 175.33-0.18 174.68 0.15 173.23 0.15L173.23 0.15Q171.58 0.15 170.81-0.2 170.03-0.55 170.03-1.7L170.03-1.7Q170.18-2.4 170.48-3.4L170.48-3.4Q173.38-15.05 174.93-21.35L174.93-21.35 173.63-22.85ZM203.18-29.7Q203.18-31.25 204.16-32.45 205.13-33.65 206.88-33.65L206.88-33.65Q208.73-33.65 210.11-32.5 211.48-31.35 211.48-29.9L211.48-29.9Q211.48-28.45 210.08-27.4 208.68-26.35 206.83-26.35L206.83-26.35Q205.03-26.35 204.11-27.28 203.18-28.2 203.18-29.7L203.18-29.7ZM208.43-20.85Q205.78-10.05 204.38-4.6L204.38-4.6Q204.18-3.8 204.18-2.85L204.18-2.85 204.23-1.45Q204.23-0.6 203.71-0.25 203.18 0.1 201.48 0.15L201.48 0.15Q199.83 0.15 198.98-0.2 198.13-0.55 198.13-1.7L198.13-1.7Q198.13-2.25 199.41-7.55 200.68-12.85 202.88-21.35L202.88-21.35 201.73-22.85Q201.58-23 201.58-23.2L201.58-23.2Q201.58-23.7 202.68-24.03 203.78-24.35 205.73-24.35L205.73-24.35Q207.43-24.35 207.91-23.38 208.38-22.4 208.43-20.85L208.43-20.85ZM214.38-22.85Q214.23-23 214.23-23.2L214.23-23.2Q214.23-23.7 215.33-24.03 216.43-24.35 218.38-24.35L218.38-24.35Q220.18-24.35 221.03-23.43 221.88-22.5 222.03-21.2L222.03-21.2 221.13-17.95Q222.18-19.4 224.08-20.73 225.98-22.05 227.93-22.85 229.88-23.65 231.13-23.65L231.13-23.65Q233.78-23.65 234.98-22.68 236.18-21.7 236.18-19.6L236.18-19.6Q233.23-11.9 232.28-3L232.28-3 232.98-0.55Q232.38 0.6 231.3 1.28 230.23 1.95 228.18 1.95L228.18 1.95Q226.98 1.95 226.43 1.15 225.88 0.35 225.88-0.85L225.88-0.85Q225.88-4.2 226.85-8.22 227.83-12.25 229.13-16.45L229.13-16.45Q229.63-18.05 229.63-18.1L229.63-18.1Q229.63-18.8 228.83-18.8L228.83-18.8Q227.73-18.8 225.5-17.25 223.28-15.7 220.93-12.03 218.58-8.35 217.13-2.4L217.13-2.4Q217.03-2.1 216.88-1.3 216.73-0.5 216.08-0.18 215.43 0.15 213.98 0.15L213.98 0.15Q212.33 0.15 211.55-0.2 210.78-0.55 210.78-1.7L210.78-1.7Q210.93-2.4 211.23-3.4L211.23-3.4Q214.13-15.05 215.68-21.35L215.68-21.35 214.38-22.85ZM243.63 11.35Q241.33 11.35 239.3 10.35 237.28 9.35 235.9 7.78 234.53 6.2 233.93 4.6L233.93 4.6Q233.98 3.7 234.8 2.83 235.63 1.95 237.68 1.95L237.68 1.95Q238.33 1.95 238.8 2.45 239.28 2.95 239.88 4.05L239.88 4.05Q240.68 5.55 241.55 6.38 242.43 7.2 243.98 7.2L243.98 7.2Q245.73 7.2 247.35 5.83 248.98 4.45 250.15 2.1 251.33-0.25 251.78-3.1L251.78-3.1Q250.68-1.6 249.25-0.8 247.83 0 246.58 0L246.58 0Q242.58 0 240.25-1.78 237.93-3.55 237.93-8.1L237.93-8.1Q237.93-12.2 240.2-15.75 242.48-19.3 246.28-21.4 250.08-23.5 254.43-23.5L254.43-23.5Q257.28-23.5 258.65-22.35 260.03-21.2 260.32-19.45L260.32-19.45Q261.18-19.05 261.23-18.65L261.23-18.65Q261.23-18.5 261.03-17.6L261.03-17.6Q260.07-13.5 257.03-1.4L257.03-1.4 256.48 0.8Q255.23 5.65 251.7 8.5 248.18 11.35 243.63 11.35L243.63 11.35ZM254.93-18.35Q254.53-19.05 254.15-19.25 253.78-19.45 253.03-19.45L253.03-19.45Q250.68-19.45 248.48-17.93 246.28-16.4 244.93-13.98 243.58-11.55 243.58-9L243.58-9Q243.58-7.15 244.25-5.8 244.93-4.45 246.43-4.25L246.43-4.25Q248.43-4.6 250.2-6.05 251.98-7.5 252.63-9.8L252.63-9.8 254.93-18.35ZM279.57-22.85Q279.42-23 279.42-23.2L279.42-23.2Q279.42-23.7 280.52-24.03 281.62-24.35 283.57-24.35L283.57-24.35Q285.37-24.35 286.22-23.43 287.07-22.5 287.22-21.2L287.22-21.2 286.32-17.95Q287.37-19.4 289.27-20.73 291.17-22.05 293.12-22.85 295.07-23.65 296.32-23.65L296.32-23.65Q298.97-23.65 300.17-22.68 301.37-21.7 301.37-19.6L301.37-19.6Q298.42-11.9 297.47-3L297.47-3 298.17-0.55Q297.57 0.6 296.5 1.28 295.42 1.95 293.37 1.95L293.37 1.95Q292.17 1.95 291.62 1.15 291.07 0.35 291.07-0.85L291.07-0.85Q291.07-4.2 292.05-8.22 293.02-12.25 294.32-16.45L294.32-16.45Q294.82-18.05 294.82-18.1L294.82-18.1Q294.82-18.8 294.02-18.8L294.02-18.8Q292.92-18.8 290.69-17.25 288.47-15.7 286.12-12.03 283.77-8.35 282.32-2.4L282.32-2.4Q282.22-2.1 282.07-1.3 281.92-0.5 281.27-0.18 280.62 0.15 279.17 0.15L279.17 0.15Q277.52 0.15 276.75-0.2 275.97-0.55 275.97-1.7L275.97-1.7Q276.12-2.4 276.42-3.4L276.42-3.4Q279.32-15.05 280.87-21.35L280.87-21.35 279.57-22.85ZM312.47 1.05Q307.57 1.05 305.32-0.9 303.07-2.85 303.07-6.1L303.07-6.1Q303.07-10.85 305.44-14.9 307.82-18.95 311.79-21.33 315.77-23.7 320.37-23.7L320.37-23.7Q323.17-23.7 325.07-22.13 326.97-20.55 326.97-17.5L326.97-17.5Q326.97-15.75 325.84-14.63 324.72-13.5 322.62-12.63 320.52-11.75 315.82-10.15L315.82-10.15Q311.57-8.75 308.92-7.8L308.92-7.8Q308.72-7.05 308.72-6.25L308.72-6.25Q308.72-4.85 309.89-4.1 311.07-3.35 313.22-3.35L313.22-3.35Q314.57-3.35 316.32-3.9 318.07-4.45 318.52-5.3L318.52-5.3Q320.22-8.4 321.62-8.4L321.62-8.4Q323.67-8.4 324.39-7.63 325.12-6.85 325.17-5.9L325.17-5.9Q324.57-4.3 322.82-2.68 321.07-1.05 318.37 0 315.67 1.05 312.47 1.05L312.47 1.05ZM310.32-12.4Q315.27-14 318.47-15.38 321.67-16.75 321.67-18.1L321.67-18.1Q321.67-18.7 321.02-19.07 320.37-19.45 319.62-19.45L319.62-19.45Q318.12-19.45 316.19-18.3 314.27-17.15 312.62-15.5 310.97-13.85 310.32-12.4L310.32-12.4ZM345.17-10.8Q343.42-5.3 340.69-2.2 337.96 0.9 335.17 0.9L335.17 0.9Q330.17 0.9 330.17-8.1L330.17-8.1Q330.17-11.85 331.09-15.45 332.01-19.05 333.17-21.65L333.17-21.65Q334.06-23.75 336.37-23.75L336.37-23.75Q338.96-23.75 338.96-21.45L338.96-21.45Q338.96-21.2 338.37-19.5L338.37-19.5Q335.67-12.2 335.67-8.3L335.67-8.3Q335.67-6.45 335.99-5.28 336.31-4.1 337.06-4.1L337.06-4.1Q338.42-4.1 340.09-7.18 341.76-10.25 343.19-14.53 344.62-18.8 345.21-22L345.21-22Q345.31-22.65 346.19-23.15 347.06-23.65 347.71-23.65L347.71-23.65Q349.01-23.65 349.56-23.08 350.12-22.5 350.12-21.25L350.12-21.25Q350.12-21 349.81-19.7L349.81-19.7Q349.06-15.7 348.64-12.93 348.21-10.15 348.21-7.75L348.21-7.75Q348.21-6.15 348.74-5.13 349.26-4.1 350.06-4.1L350.06-4.1Q352.37-4.1 354.29-9.8 356.21-15.5 357.42-22.1L357.42-22.1Q357.62-23.4 359.62-23.4L359.62-23.4Q360.71-23.4 361.76-23.03 362.81-22.65 362.87-22.2L362.87-22.2 362.31-19.65Q360.92-13.1 359.67-9.1 358.42-5.1 355.92-2.1 353.42 0.9 349.42 0.9L349.42 0.9Q344.96 0.9 344.96-6.2L344.96-6.2Q344.96-8.4 345.37-10.8L345.37-10.8 345.17-10.8ZM386.21 1.05Q381.81 1.05 379.36-1.95 376.91-4.95 376.91-9.6L376.91-9.6Q376.91-13.5 378.79-16.95 380.66-20.4 383.91-22.5 387.16-24.6 391.06-24.6L391.06-24.6Q394.91-24.6 397.38-22.08 399.86-19.55 399.86-14.65L399.86-14.65Q399.86-11.2 397.96-7.5 396.06-3.8 392.88-1.38 389.71 1.05 386.21 1.05L386.21 1.05ZM386.96-2.95Q388.56-2.95 390.19-4.95 391.81-6.95 392.86-10 393.91-13.05 393.91-15.95L393.91-15.95Q393.91-20.4 390.21-20.4L390.21-20.4Q388.16-20.4 386.46-18.45 384.76-16.5 383.76-13.63 382.76-10.75 382.76-8.25L382.76-8.25Q382.76-6.8 383.41-5.58 384.06-4.35 385.04-3.65 386.01-2.95 386.96-2.95L386.96-2.95ZM407.56-2.2Q407.51-1.9 406.23 3.28 404.96 8.45 404.46 9.8L404.46 9.8Q404.26 10.35 403.26 10.63 402.26 10.9 401.81 10.9L401.81 10.9Q400.71 10.9 399.98 10.2 399.26 9.5 399.21 8.1L399.21 8.1 402.71-6.25Q404.71-14.1 406.01-19.65L406.01-19.65Q406.01-19.95 405.66-21.25L405.66-21.25Q405.51-22.05 405.36-22.75 405.21-23.45 405.16-23.8L405.16-23.8Q405.26-24.45 406.18-24.85 407.11-25.25 407.91-25.25L407.91-25.25Q409.11-25.25 410.28-24.4 411.46-23.55 411.61-22.35L411.61-22.35 411.46-21.05Q413.71-23.85 417.21-23.85L417.21-23.85Q420.06-23.85 422.13-22.48 424.21-21.1 425.31-18.78 426.41-16.45 426.41-13.65L426.41-13.65Q426.41-9.9 424.96-6.6 423.51-3.3 420.61-1.28 417.71 0.75 413.61 0.75L413.61 0.75Q412.31 0.75 410.26-0.13 408.21-1 407.56-2.2L407.56-2.2ZM409.11-8.55Q409.01-7.95 409.01-7.7L409.01-7.7Q409.06-6.45 409.83-5.5 410.61-4.55 411.66-4.03 412.71-3.5 413.41-3.5L413.41-3.5Q415.61-3.5 417.28-5.18 418.96-6.85 419.86-9.33 420.76-11.8 420.76-14.05L420.76-14.05Q420.76-16.15 419.63-17.78 418.51-19.4 416.81-19.4L416.81-19.4Q414.91-19.4 413.68-18.57 412.46-17.75 410.91-16.05L410.91-16.05 409.11-8.55ZM433.95-2.2Q433.9-1.9 432.63 3.28 431.35 8.45 430.85 9.8L430.85 9.8Q430.65 10.35 429.65 10.63 428.65 10.9 428.2 10.9L428.2 10.9Q427.1 10.9 426.38 10.2 425.65 9.5 425.6 8.1L425.6 8.1 429.1-6.25Q431.1-14.1 432.4-19.65L432.4-19.65Q432.4-19.95 432.05-21.25L432.05-21.25Q431.9-22.05 431.75-22.75 431.6-23.45 431.55-23.8L431.55-23.8Q431.65-24.45 432.58-24.85 433.5-25.25 434.3-25.25L434.3-25.25Q435.5-25.25 436.68-24.4 437.85-23.55 438-22.35L438-22.35 437.85-21.05Q440.1-23.85 443.6-23.85L443.6-23.85Q446.45-23.85 448.53-22.48 450.6-21.1 451.7-18.78 452.8-16.45 452.8-13.65L452.8-13.65Q452.8-9.9 451.35-6.6 449.9-3.3 447-1.28 444.1 0.75 440 0.75L440 0.75Q438.7 0.75 436.65-0.13 434.6-1 433.95-2.2L433.95-2.2ZM435.5-8.55Q435.4-7.95 435.4-7.7L435.4-7.7Q435.45-6.45 436.23-5.5 437-4.55 438.05-4.03 439.1-3.5 439.8-3.5L439.8-3.5Q442-3.5 443.68-5.18 445.35-6.85 446.25-9.33 447.15-11.8 447.15-14.05L447.15-14.05Q447.15-16.15 446.03-17.78 444.9-19.4 443.2-19.4L443.2-19.4Q441.3-19.4 440.08-18.57 438.85-17.75 437.3-16.05L437.3-16.05 435.5-8.55ZM464.4 1.05Q460 1.05 457.55-1.95 455.1-4.95 455.1-9.6L455.1-9.6Q455.1-13.5 456.98-16.95 458.85-20.4 462.1-22.5 465.35-24.6 469.25-24.6L469.25-24.6Q473.1-24.6 475.58-22.08 478.05-19.55 478.05-14.65L478.05-14.65Q478.05-11.2 476.15-7.5 474.25-3.8 471.08-1.38 467.9 1.05 464.4 1.05L464.4 1.05ZM465.15-2.95Q466.75-2.95 468.38-4.95 470-6.95 471.05-10 472.1-13.05 472.1-15.95L472.1-15.95Q472.1-20.4 468.4-20.4L468.4-20.4Q466.35-20.4 464.65-18.45 462.95-16.5 461.95-13.63 460.95-10.75 460.95-8.25L460.95-8.25Q460.95-6.8 461.6-5.58 462.25-4.35 463.23-3.65 464.2-2.95 465.15-2.95L465.15-2.95ZM486-1.9Q485.95-1.6 485.77-0.73 485.6 0.15 484.92 0.5 484.25 0.85 482.8 0.85L482.8 0.85Q481.15 0.85 480.4 0.5 479.65 0.15 479.65-1L479.65-1 482.05-10.55Q484.05-18.8 484.7-21.05L484.7-21.05 483.45-22.55Q483.3-22.7 483.3-22.9L483.3-22.9Q483.3-23.4 484.4-23.73 485.5-24.05 487.45-24.05L487.45-24.05Q489.2-24.05 489.8-23.08 490.4-22.1 490.55-20.55L490.55-20.55 490.2-19.25Q491.8-21.2 493.92-22.48 496.05-23.75 497.7-23.75L497.7-23.75Q499.85-23.75 501.05-23 502.25-22.25 502.25-21.05L502.25-21.05Q502.25-20 501.52-18.88 500.8-17.75 499.7-16.98 498.6-16.2 497.55-16.1L497.55-16.1Q496.55-16.1 496.2-16.35 495.85-16.6 495.85-17.1L495.85-17.1 496.15-18.75Q492.15-17.65 488.9-13.45L488.9-13.45 486-1.9ZM511.2-18.1L508.05-5.5Q508.05-4.35 508.65-3.68 509.25-3 510.35-3L510.35-3Q511.85-3 512.82-3.88 513.8-4.75 514.9-6.35L514.9-6.35Q515.7-7.5 516.2-8 516.7-8.5 517.35-8.5L517.35-8.5Q518.65-8.5 519.2-8.18 519.75-7.85 519.75-6.85L519.75-6.85Q519.75-6.4 519.65-5.78 519.55-5.15 519.4-4.85L519.4-4.85Q518.2-2.3 515.47-0.45 512.75 1.4 509.3 1.4L509.3 1.4Q505.85 1.4 504.1-0.28 502.35-1.95 502.35-5.05L502.35-5.05Q502.35-5.5 502.8-7.4 503.25-9.3 503.95-11.95L503.95-11.95 505.35-17.65 502.3-17.4Q501.7-17.4 501.4-17.85 501.1-18.3 501.1-18.95L501.1-18.95Q501.1-20.2 502-21.45L502-21.45Q502.1-21.6 503-21.75 503.9-21.9 505.2-22.05L505.2-22.05 506.55-22.2 508.25-29.5Q508.75-30.8 509.77-31.53 510.8-32.25 511.7-32.25L511.7-32.25Q512.7-32.25 513.4-31.65 514.1-31.05 514.15-30.25L514.15-30.25 512.35-22.75Q514.3-23 515.97-23.18 517.65-23.35 518.6-23.35L518.6-23.35Q520.5-23.35 520.5-21.15L520.5-21.15Q520.5-20.3 519.77-19.63 519.05-18.95 518.2-18.8L518.2-18.8 511.2-18.1ZM542.49-0.15Q542.29 0.7 541.59 1.03 540.89 1.35 539.74 1.35L539.74 1.35Q536.29 1.35 536.29-0.2L536.29-0.2 536.59-2.1Q535.19-1.05 533.29 0 531.39 1.05 530.14 1.05L530.14 1.05Q522.74 1.05 522.74-3.8L522.74-3.8Q522.74-12.05 527.69-21.7L527.69-21.7Q528.29-22.85 528.97-23.35 529.64-23.85 531.29-23.85L531.29-23.85Q533.04-23.85 533.92-23.38 534.79-22.9 534.79-22.25L534.79-22.25Q534.79-22.1 534.24-21.35L534.24-21.35Q533.69-20.7 533.29-20.05L533.29-20.05Q528.59-12.2 528.59-4.75L528.59-4.75Q528.59-4.1 529.09-3.6 529.59-3.1 529.99-3.1L529.99-3.1Q531.09-3.1 533.72-4.15 536.34-5.2 537.74-6.3L537.74-6.3 538.74-10.35Q540.54-17.6 540.99-19.25L540.99-19.25Q541.54-21.25 542.42-22.53 543.29-23.8 545.19-23.8L545.19-23.8Q547.84-23.8 547.84-22.2L547.84-22.2Q547.84-21.95 547.72-21.58 547.59-21.2 547.54-20.95L547.54-20.95 545.54-12.85Q543.14-3.2 542.49-0.15L542.49-0.15ZM552.49-22.85Q552.34-23 552.34-23.2L552.34-23.2Q552.34-23.7 553.44-24.03 554.54-24.35 556.49-24.35L556.49-24.35Q558.29-24.35 559.14-23.43 559.99-22.5 560.14-21.2L560.14-21.2 559.24-17.95Q560.29-19.4 562.19-20.73 564.09-22.05 566.04-22.85 567.99-23.65 569.24-23.65L569.24-23.65Q571.89-23.65 573.09-22.68 574.29-21.7 574.29-19.6L574.29-19.6Q571.34-11.9 570.39-3L570.39-3 571.09-0.55Q570.49 0.6 569.42 1.28 568.34 1.95 566.29 1.95L566.29 1.95Q565.09 1.95 564.54 1.15 563.99 0.35 563.99-0.85L563.99-0.85Q563.99-4.2 564.97-8.22 565.94-12.25 567.24-16.45L567.24-16.45Q567.74-18.05 567.74-18.1L567.74-18.1Q567.74-18.8 566.94-18.8L566.94-18.8Q565.84-18.8 563.62-17.25 561.39-15.7 559.04-12.03 556.69-8.35 555.24-2.4L555.24-2.4Q555.14-2.1 554.99-1.3 554.84-0.5 554.19-0.18 553.54 0.15 552.09 0.15L552.09 0.15Q550.44 0.15 549.67-0.2 548.89-0.55 548.89-1.7L548.89-1.7Q549.04-2.4 549.34-3.4L549.34-3.4Q552.24-15.05 553.79-21.35L553.79-21.35 552.49-22.85ZM582.04-29.7Q582.04-31.25 583.01-32.45 583.99-33.65 585.74-33.65L585.74-33.65Q587.59-33.65 588.96-32.5 590.34-31.35 590.34-29.9L590.34-29.9Q590.34-28.45 588.94-27.4 587.54-26.35 585.69-26.35L585.69-26.35Q583.89-26.35 582.96-27.28 582.04-28.2 582.04-29.7L582.04-29.7ZM587.29-20.85Q584.64-10.05 583.24-4.6L583.24-4.6Q583.04-3.8 583.04-2.85L583.04-2.85 583.09-1.45Q583.09-0.6 582.56-0.25 582.04 0.1 580.34 0.15L580.34 0.15Q578.69 0.15 577.84-0.2 576.99-0.55 576.99-1.7L576.99-1.7Q576.99-2.25 578.26-7.55 579.54-12.85 581.74-21.35L581.74-21.35 580.59-22.85Q580.44-23 580.44-23.2L580.44-23.2Q580.44-23.7 581.54-24.03 582.64-24.35 584.59-24.35L584.59-24.35Q586.29-24.35 586.76-23.38 587.24-22.4 587.29-20.85L587.29-20.85ZM600.59-18.1L597.44-5.5Q597.44-4.35 598.04-3.68 598.64-3 599.74-3L599.74-3Q601.24-3 602.21-3.88 603.19-4.75 604.29-6.35L604.29-6.35Q605.09-7.5 605.59-8 606.09-8.5 606.74-8.5L606.74-8.5Q608.04-8.5 608.59-8.18 609.14-7.85 609.14-6.85L609.14-6.85Q609.14-6.4 609.04-5.78 608.94-5.15 608.79-4.85L608.79-4.85Q607.59-2.3 604.86-0.45 602.14 1.4 598.69 1.4L598.69 1.4Q595.24 1.4 593.49-0.28 591.74-1.95 591.74-5.05L591.74-5.05Q591.74-5.5 592.19-7.4 592.64-9.3 593.34-11.95L593.34-11.95 594.74-17.65 591.69-17.4Q591.09-17.4 590.79-17.85 590.49-18.3 590.49-18.95L590.49-18.95Q590.49-20.2 591.39-21.45L591.39-21.45Q591.49-21.6 592.39-21.75 593.29-21.9 594.59-22.05L594.59-22.05 595.94-22.2 597.64-29.5Q598.14-30.8 599.16-31.53 600.19-32.25 601.09-32.25L601.09-32.25Q602.09-32.25 602.79-31.65 603.49-31.05 603.54-30.25L603.54-30.25 601.74-22.75Q603.69-23 605.36-23.18 607.04-23.35 607.99-23.35L607.99-23.35Q609.89-23.35 609.89-21.15L609.89-21.15Q609.89-20.3 609.16-19.63 608.44-18.95 607.59-18.8L607.59-18.8 600.59-18.1ZM617.68-29.7Q617.68-31.25 618.66-32.45 619.63-33.65 621.38-33.65L621.38-33.65Q623.23-33.65 624.61-32.5 625.98-31.35 625.98-29.9L625.98-29.9Q625.98-28.45 624.58-27.4 623.18-26.35 621.33-26.35L621.33-26.35Q619.53-26.35 618.61-27.28 617.68-28.2 617.68-29.7L617.68-29.7ZM622.93-20.85Q620.28-10.05 618.88-4.6L618.88-4.6Q618.68-3.8 618.68-2.85L618.68-2.85 618.73-1.45Q618.73-0.6 618.21-0.25 617.68 0.1 615.98 0.15L615.98 0.15Q614.33 0.15 613.48-0.2 612.63-0.55 612.63-1.7L612.63-1.7Q612.63-2.25 613.91-7.55 615.18-12.85 617.38-21.35L617.38-21.35 616.23-22.85Q616.08-23 616.08-23.2L616.08-23.2Q616.08-23.7 617.18-24.03 618.28-24.35 620.23-24.35L620.23-24.35Q621.93-24.35 622.41-23.38 622.88-22.4 622.93-20.85L622.93-20.85ZM634.83 1.05Q629.93 1.05 627.68-0.9 625.43-2.85 625.43-6.1L625.43-6.1Q625.43-10.85 627.81-14.9 630.18-18.95 634.16-21.33 638.13-23.7 642.73-23.7L642.73-23.7Q645.53-23.7 647.43-22.13 649.33-20.55 649.33-17.5L649.33-17.5Q649.33-15.75 648.21-14.63 647.08-13.5 644.98-12.63 642.88-11.75 638.18-10.15L638.18-10.15Q633.93-8.75 631.28-7.8L631.28-7.8Q631.08-7.05 631.08-6.25L631.08-6.25Q631.08-4.85 632.26-4.1 633.43-3.35 635.58-3.35L635.58-3.35Q636.93-3.35 638.68-3.9 640.43-4.45 640.88-5.3L640.88-5.3Q642.58-8.4 643.98-8.4L643.98-8.4Q646.03-8.4 646.76-7.63 647.48-6.85 647.53-5.9L647.53-5.9Q646.93-4.3 645.18-2.68 643.43-1.05 640.73 0 638.03 1.05 634.83 1.05L634.83 1.05ZM632.68-12.4Q637.63-14 640.83-15.38 644.03-16.75 644.03-18.1L644.03-18.1Q644.03-18.7 643.38-19.07 642.73-19.45 641.98-19.45L641.98-19.45Q640.48-19.45 638.56-18.3 636.63-17.15 634.98-15.5 633.33-13.85 632.68-12.4L632.68-12.4ZM667.93-19.35Q667.33-19.65 666.43-19.65L666.43-19.65Q664.18-19.65 661.93-18.75 659.68-17.85 659.68-16.45L659.68-16.45Q659.68-15.45 660.58-14.85 661.48-14.25 663.43-13.5L663.43-13.5Q665.53-12.65 666.83-11.9 668.13-11.15 669.1-9.73 670.08-8.3 670.08-6.1L670.08-6.1Q670.08-2.5 667.1-0.58 664.13 1.35 659.13 1.35L659.13 1.35Q656.68 1.35 654.58 0.6 652.48-0.15 651.25-1.33 650.03-2.5 649.93-3.65L649.93-3.65Q649.93-4.85 650.98-5.63 652.03-6.4 653.93-6.65L653.93-6.65Q653.98-5.65 654.98-4.78 655.98-3.9 657.35-3.38 658.73-2.85 659.73-2.85L659.73-2.85Q661.43-2.85 662.83-3.78 664.23-4.7 664.23-5.95L664.23-5.95Q664.23-8.25 659.78-9.6L659.78-9.6Q656.93-10.45 655.4-12.3 653.88-14.15 653.88-16.2L653.88-16.2Q653.88-20.25 657.55-22.03 661.23-23.8 666.93-23.8L666.93-23.8Q670.13-23.8 671.88-23.05 673.63-22.3 673.63-20.45L673.63-20.45Q673.63-19.2 672.7-18.25 671.78-17.3 670.08-17.3L670.08-17.3Q668.58-17.3 668.15-17.53 667.73-17.75 667.68-18.3L667.68-18.3Q667.68-18.8 667.93-19.35L667.93-19.35Z" opacity="1" transform="matrix(1,0,0,1,0,0)" fill="#ffffff" class="slogan-text-1" data-fill-palette-color="secondary" id="text-1"></path></svg></g></svg></g></svg></g></svg></g><g transform="matrix(1,0,0,1,417.23845546363634,0)"><svg viewBox="0 0 184.86907784385605 184.86907784385605" height="184.86907784385605" width="184.86907784385605"><g data-palette-color="#ffffff"><rect width="50.53088127732065" height="184.86907784385605" fill="#ffffff" stroke="transparent" data-fill-palette-color="accent" x="0" fill-opacity="1"></rect><rect width="50.53088127732065" height="184.86907784385605" fill="#ffffff" stroke="transparent" data-fill-palette-color="accent" x="61.623025947952016" fill-opacity="0.75"></rect><rect width="50.53088127732065" height="184.86907784385605" fill="#ffffff" stroke="transparent" data-fill-palette-color="accent" x="123.24605189590403" fill-opacity="0.5"></rect></g></svg></g></svg></g></svg></g><defs></defs></svg><rect width="395.52" height="121.43913441365353" fill="none" stroke="none" visibility="hidden"></rect></g></svg></g></svg>