<svg xmlns="http://www.w3.org/2000/svg" version="1.1" xmlns:xlink="http://www.w3.org/1999/xlink" xmlns:svgjs="http://svgjs.dev/svgjs" width="1000" height="623" viewBox="0 0 1000 623"><g transform="matrix(1,0,0,1,-0.6060606060606233,0.25222672064785456)"><svg viewBox="0 0 396 247" data-background-color="#282634" preserveAspectRatio="xMidYMid meet" height="623" width="1000" xmlns="http://www.w3.org/2000/svg" xmlns:xlink="http://www.w3.org/1999/xlink"><g id="tight-bounds" transform="matrix(1,0,0,1,0.2400000000000091,-0.09999999999999432)"><svg viewBox="0 0 395.52 247.2" height="247.2" width="395.52"><g><svg></svg></g><g><svg viewBox="0 0 395.52 247.2" height="247.2" width="395.52"><g transform="matrix(1,0,0,1,75.54432,79.2679793264636)"><svg viewBox="0 0 244.43135999999998 88.66404134707277" height="88.66404134707277" width="244.43135999999998"><g><svg viewBox="0 0 244.43135999999998 88.66404134707277" height="88.66404134707277" width="244.43135999999998"><g><svg viewBox="0 0 417.5900089767164 151.47490821978027" height="88.66404134707277" width="244.43135999999998"><g><svg viewBox="0 0 244.43135999999998 151.47490821978027" height="151.47490821978027" width="244.43135999999998"><g id="textblocktransform"><svg viewBox="0 0 244.43135999999998 151.47490821978027" height="151.47490821978027" width="244.43135999999998" id="textblock"><g><svg viewBox="0 0 244.43135999999998 93.6142110876005" height="93.6142110876005" width="244.43135999999998"><g transform="matrix(1,0,0,1,0,0)"><svg width="244.43135999999998" viewBox="-0.1 -40.7 118.14 45.25" height="93.6142110876005" data-palette-color="#0074d9"><path d="M45-33.95L45-33.95Q45-35.7 43.4-37.25L43.4-37.25Q41.1-39.45 37.05-39.45L37.05-39.45Q33.5-39.45 29.2-37.9L29.2-37.9Q26.95-37.1 25.3-35.7L25.3-35.7Q22.75-33.5 22.75-31.3L22.75-31.3Q22.75-28.35 26.5-26L26.5-26Q27.9-25.15 32.13-23.23 36.35-21.3 38.3-20.1L38.3-20.1Q41.25-18.3 42.38-16.25 43.5-14.2 43.5-12.45L43.5-12.45Q43.5-9.95 41.85-7.35L41.85-7.35Q38.95-2.7 33.35 0.65L33.35 0.65Q26.9 4.55 17.8 4.55L17.8 4.55Q9.05 4.55 3.9 0.1L3.9 0.1Q-0.1-3.3-0.1-8.65L-0.1-8.65Q-0.1-12.05 2.38-16.15 4.85-20.25 8.45-21.95L8.45-21.95Q9.2-22.25 9.58-22.15 9.95-22.05 8.95-21.2L8.95-21.2Q6.8-19.5 5.5-17.45L5.5-17.45Q2.7-13.05 2.7-7.9L2.7-7.9Q2.7-4.5 4.6-1.95L4.6-1.95Q8 2.6 16.4 3.2L16.4 3.2Q17.35 3.3 19.23 3.3 21.1 3.3 24.33 2.63 27.55 1.95 30.55 0.4L30.55 0.4Q37-3 38.9-8.4L38.9-8.4Q39.5-10 39.5-11.5L39.5-11.5Q39.5-14.9 36.45-17.5L36.45-17.5Q34.8-18.8 29.73-20.98 24.65-23.15 22.9-24.3L22.9-24.3Q19.05-26.9 19.05-30.45L19.05-30.45Q19.05-33.55 22.5-36.5L22.5-36.5Q27.45-40.7 36.5-40.7L36.5-40.7Q40.75-40.7 43.43-39.43 46.1-38.15 46.7-35.6L46.7-35.6Q46.8-35.1 46.8-34.6L46.8-34.6Q46.8-32.65 45-31.1L45-31.1Q43.75-30.1 41.65-29.5L41.65-29.5Q40.75-29.25 40.65-29.7L40.65-29.7Q40.55-30.35 41.9-30.5L41.9-30.5Q44.3-30.8 44.85-32.9L44.85-32.9Q45-33.45 45-33.95ZM57-17.5L57-17.5Q60.65-17.5 60.65-12.9L60.65-12.9Q60.65-10.8 59.55-8.4L59.55-8.4Q58.15-5.15 55.35-2.5L55.35-2.5Q56-1.25 57.7-1.25L57.7-1.25Q59.05-1.25 60.25-2.6L60.25-2.6Q61.75-4.15 62.4-5.33 63.05-6.5 63.35-7.05 63.65-7.6 64.12-8.63 64.6-9.65 64.7-9.88 64.8-10.1 65.05-10.1L65.05-10.1Q65.55-10.15 65.55-9.75L65.55-9.75Q65.55-9.6 65.45-9.4L65.45-9.4 65.15-8.7Q64.85-8 64.7-7.7 64.55-7.4 64.17-6.63 63.8-5.85 63.52-5.4 63.25-4.95 62.77-4.2 62.3-3.45 61.92-3 61.55-2.55 61-2 60.45-1.45 59.95-1.15L59.95-1.15Q58.7-0.4 57.6-0.4L57.6-0.4Q55.55-0.4 54.4-1.7L54.4-1.7Q52.1 0 50.15 0L50.15 0Q46.5 0 46.5-4.6L46.5-4.6Q46.5-6.7 47.6-9.1L47.6-9.1Q49.1-12.6 51.82-15.05 54.55-17.5 57-17.5ZM57.55-15.95L57.55-15.95Q56.2-15.95 54.35-14.15 52.5-12.35 51.05-9.25L51.05-9.25Q49.3-5.65 49.3-3.35 49.3-1.05 51.05-1.05L51.05-1.05Q52.3-1.05 53.85-2.4L53.85-2.4Q53.05-3.55 53.05-4.85L53.05-4.85Q53.15-7 54.8-7L54.8-7Q55.45-7 55.87-6.55 56.3-6.1 56.3-5.73 56.3-5.35 56.2-4.95L56.2-4.95Q57.05-6.2 58.15-8.5L58.15-8.5Q59.4-11.05 59.4-13.5 59.4-15.95 57.55-15.95ZM73.85-11.5L73.85-11.5Q75.6-13.6 75.6-15.05 75.6-16.5 74.4-16.5L74.4-16.5Q72.05-16.5 69.05-12.2L69.05-12.2Q68.1-10.85 67.2-8.65 66.3-6.45 66.3-4.67 66.3-2.9 67.02-1.8 67.75-0.7 69.27-0.7 70.8-0.7 72.1-1.43 73.4-2.15 74.57-3.73 75.75-5.3 76.35-6.35 76.95-7.4 78-9.5L78-9.5Q78.35-10.2 78.6-10.08 78.85-9.95 78.85-9.73 78.85-9.5 78.17-8.08 77.5-6.65 76.82-5.4 76.15-4.15 74.9-2.6L74.9-2.6Q72.65 0.2 68.75 0.2L68.75 0.2Q65.95 0.2 64.72-1.18 63.5-2.55 63.5-4.35L63.5-4.35Q63.5-6.55 64.57-9.15 65.65-11.75 67.05-13.65L67.05-13.65Q69.95-17.6 73.75-17.6L73.75-17.6Q75.6-17.6 76.42-16.73 77.25-15.85 77.25-14.7L77.25-14.7Q77.25-13 75.85-11.8L75.85-11.8Q75.15-11.15 74.67-11.15 74.2-11.15 73.85-11.5ZM84.49-19.45Q83.79-18.85 82.94-18.85 82.09-18.85 81.59-19.45 81.09-20.05 81.19-20.9L81.19-20.9Q81.34-21.75 82.04-22.35 82.74-22.95 83.59-22.95 84.44-22.95 84.97-22.35 85.49-21.75 85.34-20.9 85.19-20.05 84.49-19.45ZM79.59-1.1L79.59-1.1Q80.54-1.1 81.59-2.05L81.59-2.05Q83.44-3.9 86.29-9.6L86.29-9.6Q86.64-10.35 86.99-10.05L86.99-10.05Q87.09-9.95 87.09-9.73 87.09-9.5 86.69-8.63 86.29-7.75 85.97-7.05 85.64-6.35 84.72-4.78 83.79-3.2 83.04-2.35L83.04-2.35Q80.99 0 79.17 0 77.34 0 76.54-1.1 75.74-2.2 75.74-3.55 75.74-4.9 76.39-6.5L76.39-6.5 79.59-14.65Q79.69-14.95 79.69-15.45 79.69-15.95 79.09-16.75L79.09-16.75 81.84-16.8Q82.99-16.8 83.19-16.38 83.39-15.95 82.89-15.05L82.89-15.05 78.89-5.7Q78.04-3.85 78.04-2.55L78.04-2.55Q78.04-1.1 79.59-1.1ZM101.54-13.55Q100.64-12.65 98.99-9.47 97.34-6.3 97.02-4.73 96.69-3.15 96.69-2.18 96.69-1.2 97.44-1.2L97.44-1.2Q98.39-1.2 99.79-2.95L99.79-2.95Q101.84-5.5 103.84-9.6L103.84-9.6Q104.04-10.05 104.29-10.1L104.29-10.1Q104.69-10.25 104.69-9.8L104.69-9.8Q104.69-9.55 104.54-9.2L104.54-9.2Q99.94 0.1 96.79 0.1L96.79 0.1Q95.34 0.1 94.44-1.3L94.44-1.3Q93.99-2.05 93.99-3.3 93.99-4.55 94.49-6.35L94.49-6.35Q90.49 0.1 87.59 0.1L87.59 0.1Q86.79 0.1 86.14-0.4L86.14-0.4Q84.64-1.45 84.64-4L84.64-4Q84.64-8.9 88.89-13.95L88.89-13.95Q91.29-16.75 94.79-17.6L94.79-17.6Q95.74-17.85 96.59-17.85L96.59-17.85Q98.89-17.85 100.49-16.25L100.49-16.25Q100.99-15.7 100.79-15.2 100.59-14.7 99.94-14.8L99.94-14.8Q99.39-16.6 97.54-16.6L97.54-16.6Q95.39-16.6 92.24-13.2L92.24-13.2Q90.44-11.2 88.89-8.5L88.89-8.5Q86.94-5.25 86.94-3.3 86.94-1.35 88.19-1.35L88.19-1.35Q91.19-1.35 96.04-10.55L96.04-10.55Q96.99-12.4 97.64-13.08 98.29-13.75 99.29-13.75L99.29-13.75Q99.49-13.75 100.32-13.6 101.14-13.45 101.54-13.55L101.54-13.55ZM106.59-9.65Q106.54-9.45 106.14-8.28 105.74-7.1 105.46-6.03 105.19-4.95 105.19-3.88 105.19-2.8 105.69-1.88 106.19-0.95 107.29-0.95L107.29-0.95Q109.09-0.95 110.79-3.38 112.49-5.8 114.39-9.55L114.39-9.55Q114.79-10.25 115.14-10.1L115.14-10.1Q115.39-9.9 115.24-9.58 115.09-9.25 114.61-8.18 114.14-7.1 113.91-6.68 113.69-6.25 113.11-5.18 112.54-4.1 112.11-3.58 111.69-3.05 110.96-2.23 110.24-1.4 109.59-1L109.59-1Q107.84 0.1 106.29 0.1 104.74 0.1 103.89-0.58 103.04-1.25 102.86-2.02 102.69-2.8 102.69-3.4 102.69-4 102.74-4.95L102.74-4.95Q102.89-6.55 103.36-8.05 103.84-9.55 103.89-9.75L103.89-9.75Q105.04-13.9 107.16-18.8 109.29-23.7 110.76-26.18 112.24-28.65 113.09-29.55L113.09-29.55Q114.79-31.35 116.44-31.35L116.44-31.35Q117.59-31.35 117.99-29.7L117.99-29.7Q118.04-29.4 118.04-28.95L118.04-28.95Q118.04-27.25 116.84-24.65L116.84-24.65Q112.54-15.1 106.59-9.65L106.59-9.65ZM106.99-11.25Q109.54-13.85 112.04-17.8 114.54-21.75 115.71-24.53 116.89-27.3 116.89-28.3 116.89-29.3 116.54-29.3L116.54-29.3Q116.04-29.3 114.64-27.33 113.24-25.35 110.86-20.23 108.49-15.1 106.99-11.25L106.99-11.25Z" opacity="1" transform="matrix(1,0,0,1,0,0)" fill="#ffffff" class="wordmark-text-0" data-fill-palette-color="primary" id="text-0"></path></svg></g></svg></g><g transform="matrix(1,0,0,1,0,115.71427958431687)"><svg viewBox="0 0 244.43135999999998 35.76062863546339" height="35.76062863546339" width="244.43135999999998"><g transform="matrix(1,0,0,1,0,0)"><svg width="244.43135999999998" viewBox="-0.35 -29.6 259.40000000000003 37.95" height="35.76062863546339" data-palette-color="url(#41504012-159d-48bb-9884-3334a3e77a1b)"></svg></g></svg></g></svg></g></svg></g><g transform="matrix(1,0,0,1,266.53142849671633,13.905506835207511)"><svg viewBox="0 0 151.05858048 123.66389454936525" height="123.66389454936525" width="151.05858048"><g><svg xmlns="http://www.w3.org/2000/svg" xmlns:xlink="http://www.w3.org/1999/xlink" version="1.1" x="0" y="0" viewBox="4.3 11.799999999999997 82.45296025615374 67.50000000000001" style="enable-background:new 0 0 91 91;" xml:space="preserve" height="123.66389454936525" width="151.05858048" class="icon-icon-0" data-fill-palette-color="accent" id="icon-0"></svg></g></svg></g></svg></g></svg></g></svg></g><g><path d="M245.816 0c68.262 0 123.6 55.338 123.6 123.6 0 68.262-55.338 123.6-123.6 123.6-50.156 0-93.334-29.875-112.712-72.8h2.718c19.209 41.522 61.237 70.329 109.994 70.329 66.898 0 121.129-54.231 121.129-121.129 0-66.898-54.231-121.129-121.129-121.129-48.757 0-90.785 28.807-109.994 70.329h-2.718c19.377-42.925 62.555-72.8 112.712-72.8z" fill="#ffffff" stroke="transparent" data-fill-palette-color="tertiary"></path></g></svg></g><defs></defs><mask id="358c3279-763b-4d34-a71c-c1c201e091da"><g id="SvgjsG1233"><svg viewBox="0 0 395.52 247.2" height="247.2" width="395.52"><g><svg></svg></g><g><svg viewBox="0 0 395.52 247.2" height="247.2" width="395.52"><g transform="matrix(1,0,0,1,75.54432,79.2679793264636)"><svg viewBox="0 0 244.43135999999998 88.66404134707277" height="88.66404134707277" width="244.43135999999998"><g><svg viewBox="0 0 244.43135999999998 88.66404134707277" height="88.66404134707277" width="244.43135999999998"><g><svg viewBox="0 0 417.5900089767164 151.47490821978027" height="88.66404134707277" width="244.43135999999998"><g><svg viewBox="0 0 244.43135999999998 151.47490821978027" height="151.47490821978027" width="244.43135999999998"><g id="SvgjsG1232"><svg viewBox="0 0 244.43135999999998 151.47490821978027" height="151.47490821978027" width="244.43135999999998" id="SvgjsSvg1231"><g><svg viewBox="0 0 244.43135999999998 93.6142110876005" height="93.6142110876005" width="244.43135999999998"><g transform="matrix(1,0,0,1,0,0)"><svg width="244.43135999999998" viewBox="-0.1 -40.7 118.14 45.25" height="93.6142110876005" data-palette-color="#0074d9"></svg></g></svg></g><g transform="matrix(1,0,0,1,0,115.71427958431687)"><svg viewBox="0 0 244.43135999999998 35.76062863546339" height="35.76062863546339" width="244.43135999999998"><g transform="matrix(1,0,0,1,0,0)"><svg width="244.43135999999998" viewBox="-0.35 -29.6 259.40000000000003 37.95" height="35.76062863546339" data-palette-color="url(#41504012-159d-48bb-9884-3334a3e77a1b)"><path d="M15.9-14.2L15.9-14.2Q17.05-14.2 17.05-12.98 17.05-11.75 15.9-9.6 14.75-7.45 14.2-6.1L14.2-6.1Q13.25-3.8 13.25-2.43 13.25-1.05 13.65-0.6L13.65-0.6Q14.4 0.2 15.7-0.53 17-1.25 19.33-3.33 21.65-5.4 23.05-7.4L23.05-7.4Q23.25-7.65 23.53-7.53 23.8-7.4 23.8-7.28 23.8-7.15 23.7-7L23.7-7Q22.95-5.65 21-3.55 19.05-1.45 17.25-0.18 15.45 1.1 13.7 1.1L13.7 1.1Q12 1.05 11.3 0.33 10.6-0.4 10.6-1.5 10.6-2.6 10.8-3.63 11-4.65 11.55-6L11.55-6Q12.45-8.15 13.13-9.35 13.8-10.55 13.8-10.93 13.8-11.3 13.4-11.3L13.4-11.3Q12.6-11.3 10.35-9.35L10.35-9.35Q8.8-7.9 5.78-3.88 2.75 0.15 2.35 0.4L2.35 0.4Q0.55 1.3 0.1 1.3-0.35 1.3-0.35 1.15-0.35 1-0.25 0.73-0.15 0.45 0.73-2 1.6-4.45 2.63-7.38 3.65-10.3 3.88-10.9 4.1-11.5 4.17-11.93 4.25-12.35 4.35-12.65 4.45-12.95 4.73-13.33 5-13.7 5.45-13.73 5.9-13.75 6.6-13.63 7.3-13.5 7.3-13L7.3-13Q7.3-12.65 6.75-11.48 6.2-10.3 3.6-3.4L3.6-3.4Q5.4-5.6 8.15-8.47 10.9-11.35 12.8-12.85L12.8-12.85Q14.7-14.2 15.9-14.2ZM55.17-14.55L55.17-14.55Q57.87-14.55 57.87-11.95L57.87-11.95Q57.87-10.6 57.12-9.75L57.12-9.75Q55.87-7.9 53.07-6.53 50.27-5.15 48.32-5L48.32-5Q47.62-4.95 47.57-5.4L47.57-5.4Q47.52-5.6 47.7-5.65 47.87-5.7 47.97-5.7L47.97-5.7Q49.12-5.8 50.92-6.8L50.92-6.8Q54.27-8.6 55.82-10.5L55.82-10.5Q56.47-11.4 56.47-12.23 56.47-13.05 55.67-13.05L55.67-13.05Q55.02-13.05 53.92-12.5L53.92-12.5Q51.57-11.4 48.97-8.68 46.37-5.95 45.57-3.35L45.57-3.35Q45.32-2.55 45.32-1.78 45.32-1 45.97-0.3 46.62 0.4 47.97 0.4L47.97 0.4Q49.47 0.4 51.42-0.4L51.42-0.4Q57.07-2.7 60.12-7.35L60.12-7.35Q60.42-7.75 60.67-7.5L60.67-7.5Q60.87-7.4 60.87-7.25 60.87-7.1 60.72-6.9L60.72-6.9Q59.22-4.4 56.92-2.45L56.92-2.45Q52.47 1.35 48.27 1.35L48.27 1.35Q44.67 1.35 43.22-0.8L43.22-0.8Q42.67-1.65 42.67-2.85 42.67-4.05 43.32-5.7L43.32-5.7Q44.57-8.55 48.67-11.55 52.77-14.55 55.17-14.55ZM88.1-13.95L88.75-14Q92.6-14.35 93.42-14.35 94.25-14.35 94.25-14.1L94.25-14.1Q94.25-13.8 93.07-13.48 91.9-13.15 87.35-12.65L87.35-12.65Q87.1-12.2 86.75-11.6L86.75-11.6Q86-10.4 85.95-10.15L85.95-10.15Q83.1-4.45 82.95-2.9L82.95-2.9Q82.9-2.45 82.9-1.75 82.9-1.05 83.3-0.6L83.3-0.6Q84 0.2 85.3-0.5 86.6-1.2 88.92-3.3 91.25-5.4 92.7-7.4L92.7-7.4Q92.9-7.65 93.2-7.5L93.2-7.5Q93.95-7.15 90.6-3.55L90.6-3.55Q87.4-0.1 85.25 0.7L85.25 0.7Q84 1.15 83.15 1.15L83.15 1.15Q81.15 1.15 80.5-0.75L80.5-0.75Q80.4-1.1 80.4-1.6L80.4-1.6Q80.4-3.35 82-6.9L82-6.9Q81.75-6.35 80.05-4.4L80.05-4.4Q79.6-3.9 79.35-4.4L79.35-4.4Q79.3-4.5 79.3-4.67 79.3-4.85 79.5-5.1L79.5-5.1Q81.95-8.15 83.35-10.25L83.35-10.25Q83.35-10.3 84.45-12.35L84.45-12.35Q83.95-12.25 83.42-12.25 82.9-12.25 82.65-12.58 82.4-12.9 82.6-13.35L82.6-13.35Q82.95-14.15 85.25-14.25L85.25-14.25Q85.3-14.35 85.45-14.35L85.45-14.35 87.95-19Q88.15-19.4 88.4-19.83 88.65-20.25 88.77-20.48 88.9-20.7 89.05-20.95 89.2-21.2 89.3-21.3 89.4-21.4 89.5-21.5L89.5-21.5Q89.7-21.8 90.67-21.8 91.65-21.8 92-21.25L92-21.25Q92.15-21.05 92.15-20.58 92.15-20.1 91.8-19.53 91.45-18.95 91.05-18.7 90.65-18.45 90.5-18.15L90.5-18.15 88.1-13.95ZM120.9-12.5Q120.17-11.9 118.25-9.38 116.32-6.85 115.6-4.9 114.87-2.95 114.87-1.7 114.87-0.45 115.95-0.45 117.02-0.45 118.97-2L118.97-2Q122.12-4.6 126.07-11.65L126.07-11.65Q126.27-12 126.8-12 127.32-12 128.25-11.73 129.17-11.45 129.17-11L129.17-11Q129.17-10.85 129.07-10.7L129.07-10.7Q126.97-7.3 126.42-3L126.42-3Q126.22-1.55 126.92-0.65L126.92-0.65Q127.57 0.25 129.57-0.85L129.57-0.85Q132.67-2.4 135.25-5.7 137.82-9 138.42-11.65L138.42-11.65Q138.62-12.2 138.62-12.85L138.62-12.85Q138.62-15.65 137.02-16.25L137.02-16.25Q136.57-16.45 136.02-16.38 135.47-16.3 135.37-16.43 135.27-16.55 135.32-16.7L135.32-16.7Q135.42-17.15 137.37-17.15L137.37-17.15Q140.62-17.15 140.62-13.8 140.62-10.45 136.82-5.75L136.82-5.75Q134.42-2.9 131.17-0.5L131.17-0.5Q129.37 0.75 127.42 0.75L127.42 0.75Q124.87 0.75 124.27-1.15L124.27-1.15Q123.92-2.05 123.92-4 123.92-5.95 124.42-7.2L124.42-7.2Q123.07-4.5 121.47-2.65 119.87-0.8 118.75-0.13 117.62 0.55 116.47 0.55L116.47 0.55Q114.47 0.55 113.67-0.53 112.87-1.6 112.87-2.85L112.87-2.85Q112.87-4.5 113.6-6.43 114.32-8.35 115.05-9.47 115.77-10.6 116.95-12.18 118.12-13.75 118.47-13.9L118.47-13.9Q119.22-14.1 119.9-14.1 120.57-14.1 121.07-13.9 121.57-13.7 121.6-13.4 121.62-13.1 120.9-12.5ZM172.25-5.5L172.25-5.5Q173.15-7.35 173.15-8.35 173.15-9.35 172.92-9.93 172.7-10.5 173.12-10.9 173.55-11.3 174.2-11.2L174.2-11.2Q175.2-10.95 175.2-8.95 175.2-6.95 172.85-3.7L172.85-3.7Q172.9-2.35 174.25-2.35 175.6-2.35 178.35-5.25L178.35-5.25Q179.65-6.75 179.97-7.2 180.3-7.65 180.55-7.53 180.8-7.4 180.8-7.3L180.8-7.3Q180.8-6.8 179-4.7L179-4.7Q176.15-1.2 173.95-1.2L173.95-1.2Q172.5-1.2 171.9-2.45L171.9-2.45Q170.9-1.4 169.95-0.5L169.95-0.5Q168 1.15 165.6 1.15L165.6 1.15Q164.25 1.15 163.35 0.5L163.35 0.5Q161.6-0.55 161.6-3.25L161.6-3.25Q161.6-6.2 163.6-9.25L163.6-9.25Q164.75-11.05 166.3-12.4L166.3-12.4Q168.75-14.55 170.95-14.55L170.95-14.55Q171.5-14.55 172-14.4L172-14.4Q173.5-13.9 173.5-12.5L173.5-12.5Q173.5-11.35 172.9-11.35L172.9-11.35Q172.65-11.45 172.65-12.1L172.65-12.1Q172.65-13 171.65-13L171.65-13Q169.9-13 167.15-9.8 164.4-6.6 163.85-3.35L163.85-3.35Q163.75-2.8 163.75-2.13 163.75-1.45 164.2-0.58 164.65 0.3 165.87 0.3 167.1 0.3 168.55-0.8 170-1.9 171.15-3.6L171.15-3.6 171-3.9Q170.8-4.7 171.2-5.2 171.6-5.7 172.25-5.5ZM207.22 1.25L207.22 1.25Q204.67 1.25 204.67-1.83 204.67-4.9 209.07-9.4L209.07-9.4Q209.42-9.75 209.57-9.95L209.57-9.95 209.92-10.45Q210.62-11.4 210.57-11.65L210.57-11.65 210.42-12.1Q210.22-12.7 208.77-12.98 207.32-13.25 206.42-13.25L206.42-13.25Q201.92-6.9 201.22-6 200.52-5.1 200.27-5.25 200.02-5.4 200.02-5.6 200.02-5.8 200.32-6.2L200.32-6.2Q203.02-9.5 204.97-13.25L204.97-13.25Q204.37-13.35 204.07-13.68 203.77-14 204.02-14.78 204.27-15.55 205.55-16.85 206.82-18.15 207.77-18.6 208.72-19.05 208.97-19.15 209.22-19.25 209.52-19.25L209.52-19.25Q210.12-19.25 209.12-17.45L209.12-17.45 207.17-14.35Q209.42-14.2 211.02-14.2L211.02-14.2 212.77-14.25Q213.62-14.25 214.02-14.03 214.42-13.8 214.22-13.25L214.22-13.25Q213.87-12.3 212.47-10.7L212.47-10.7Q209.47-7.2 207.97-3.25L207.97-3.25Q207.62-2.3 207.62-1.6L207.62-1.6Q207.62-0.15 208.67-0.15L208.67-0.15Q209.02-0.15 210-0.7 210.97-1.25 213.27-3.33 215.57-5.4 216.97-7.4L216.97-7.4Q217.17-7.65 217.45-7.53 217.72-7.4 217.72-7.28 217.72-7.15 217.62-7L217.62-7Q216.87-5.65 214.92-3.55 212.97-1.45 211.12-0.15L211.12-0.15Q209.32 1.25 207.22 1.25ZM239.85 0.4L239.85 0.4Q238.05 1.3 237.55 1.3 237.05 1.3 237.05 1.15 237.05 1 237.12 0.83 237.2 0.65 237.82-1.05 238.45-2.75 239.4-5.35 240.35-7.95 241.05-9.7L241.05-9.7Q239.9-8.45 238.35-6.25L238.35-6.25Q238.1-5.9 237.67-6.05 237.25-6.2 237.95-7.1L237.95-7.1Q239.6-9.1 242.1-12.85L242.1-12.85Q241.35-13.25 241.35-13.63 241.35-14 241.45-14.2L241.45-14.2Q241.7-14.8 242.35-14.45L242.35-14.45Q242.65-14.35 242.75-14.35L242.75-14.35Q244.95-20.15 248.25-24.7L248.25-24.7Q250.05-27.25 252-28.43 253.95-29.6 255.65-29.6L255.65-29.6Q256.85-29.6 257.95-29.03 259.05-28.45 259.05-27.15L259.05-27.15Q259.05-24.65 254.75-19.9L254.75-19.9Q252.45-17.45 249.6-15.4 246.75-13.35 244.55-12.4L244.55-12.4Q242.6-8.1 241.1-3.4L241.1-3.4 244.35-7.65Q244.3-8.1 244.3-8.6L244.3-8.6Q244.3-10.1 244.95-10.45L244.95-10.45Q245.3-10.6 245.4-9.85L245.4-9.85 245.6-9.15Q249.45-13.65 251.15-14.45L251.15-14.45Q251.95-14.85 252.6-14.85 253.25-14.85 253.75-14.5 254.25-14.15 254.25-13.75L254.25-13.75Q254.25-13.05 253.1-12.5L253.1-12.5Q247.6-9.85 245.85-8L245.85-8Q247.05-3.8 248.2-1.4 249.35 1 251.82 4 254.3 7 256.35 7L256.35 7Q258.05 7 257.75 5.5L257.75 5.5Q257.55 4.15 256.92 3.18 256.3 2.2 256.8 2.2L256.8 2.2Q257.25 2.25 257.75 2.65L257.75 2.65Q258.05 3 258.45 3.88 258.85 4.75 258.85 5.35L258.85 5.35Q258.8 6.75 257.5 7.55 256.2 8.35 255 8.35L255 8.35Q252.65 8.35 250.4 6.03 248.15 3.7 246.65 0.4 245.15-2.9 244.55-6.35L244.55-6.35Q243.65-5.1 242.55-3.35L242.55-3.35Q240.3 0.1 239.85 0.4ZM256.2-24.3Q257.55-26.55 257.55-27.45 257.55-28.35 256.8-28.35 256.05-28.35 254.9-27.45L254.9-27.45Q251.7-25 249.5-21.88 247.3-18.75 245.15-14.1L245.15-14.1Q249.8-16.25 253.6-20.6L253.6-20.6Q254.85-22.05 256.2-24.3Z" opacity="1" transform="matrix(1,0,0,1,0,0)" fill="white" class="slogan-text-1" id="SvgjsPath1229"></path></svg></g></svg></g></svg></g></svg></g><g transform="matrix(1,0,0,1,266.53142849671633,13.905506835207511)"><svg viewBox="0 0 151.05858048 123.66389454936525" height="123.66389454936525" width="151.05858048"><g><svg xmlns="http://www.w3.org/2000/svg" xmlns:xlink="http://www.w3.org/1999/xlink" version="1.1" x="0" y="0" viewBox="4.3 11.799999999999997 82.45296025615374 67.50000000000001" style="enable-background:new 0 0 91 91;" xml:space="preserve" height="123.66389454936525" width="151.05858048" class="icon-icon-0" data-fill-palette-color="accent" id="SvgjsSvg1228"></svg></g></svg></g></svg></g></svg></g></svg></g><g></g></svg></g><defs><mask></mask></defs></svg></g></mask><linearGradient x1="0.054" x2="0.941" y1="0.5" y2="0.5" id="41504012-159d-48bb-9884-3334a3e77a1b"><stop stop-color="#0f3054" offset="0"></stop><stop stop-color="#3b8dcb" offset="0.498"></stop><stop stop-color="#0f3054" offset="1"></stop></linearGradient><rect width="395.52" height="247.20000000000002" fill="#ffffff" mask="url(#358c3279-763b-4d34-a71c-c1c201e091da)" data-fill-palette-color="secondary"></rect><mask id="92693f8b-f2d0-4e30-b190-25d83d8c61cd"><g id="SvgjsG1243"><svg viewBox="0 0 395.52 247.2" height="247.2" width="395.52"><g><svg></svg></g><g><svg viewBox="0 0 395.52 247.2" height="247.2" width="395.52"><g transform="matrix(1,0,0,1,75.54432,79.2679793264636)"><svg viewBox="0 0 244.43135999999998 88.66404134707277" height="88.66404134707277" width="244.43135999999998"><g><svg viewBox="0 0 244.43135999999998 88.66404134707277" height="88.66404134707277" width="244.43135999999998"><g><svg viewBox="0 0 417.5900089767164 151.47490821978027" height="88.66404134707277" width="244.43135999999998"><g><svg viewBox="0 0 244.43135999999998 151.47490821978027" height="151.47490821978027" width="244.43135999999998"><g id="SvgjsG1242"><svg viewBox="0 0 244.43135999999998 151.47490821978027" height="151.47490821978027" width="244.43135999999998" id="SvgjsSvg1241"><g><svg viewBox="0 0 244.43135999999998 93.6142110876005" height="93.6142110876005" width="244.43135999999998"><g transform="matrix(1,0,0,1,0,0)"><svg width="244.43135999999998" viewBox="-0.1 -40.7 118.14 45.25" height="93.6142110876005" data-palette-color="#0074d9"></svg></g></svg></g><g transform="matrix(1,0,0,1,0,115.71427958431687)"><svg viewBox="0 0 244.43135999999998 35.76062863546339" height="35.76062863546339" width="244.43135999999998"><g transform="matrix(1,0,0,1,0,0)"><svg width="244.43135999999998" viewBox="-0.35 -29.6 259.40000000000003 37.95" height="35.76062863546339" data-palette-color="url(#41504012-159d-48bb-9884-3334a3e77a1b)"></svg></g></svg></g></svg></g></svg></g><g transform="matrix(1,0,0,1,266.53142849671633,13.905506835207511)"><svg viewBox="0 0 151.05858048 123.66389454936525" height="123.66389454936525" width="151.05858048"><g><svg xmlns="http://www.w3.org/2000/svg" xmlns:xlink="http://www.w3.org/1999/xlink" version="1.1" x="0" y="0" viewBox="4.3 11.799999999999997 82.45296025615374 67.50000000000001" style="enable-background:new 0 0 91 91;" xml:space="preserve" height="123.66389454936525" width="151.05858048" class="icon-icon-0" data-fill-palette-color="accent" id="SvgjsSvg1239"><g fill="white"><path d="M66.8 28.6c1.9 0 3.4-1.5 3.4-3.4 0-1.9-1.5-3.4-3.4-3.4-1.9 0-3.4 1.5-3.4 3.4C63.4 27.1 64.9 28.6 66.8 28.6zM66.8 23.2c1.1 0 2 0.9 2 2 0 1.1-0.9 2-2 2-1.1 0-2-0.9-2-2C64.8 24.1 65.7 23.2 66.8 23.2z" fill="white"></path><path d="M55.7 36c-1.9 0-3.4 1.5-3.4 3.4 0 1.9 1.5 3.4 3.4 3.4 1.9 0 3.4-1.5 3.4-3.4C59.1 37.5 57.5 36 55.7 36zM55.7 41.4c-1.1 0-2-0.9-2-2 0-1.1 0.9-2 2-2s2 0.9 2 2C57.7 40.5 56.8 41.4 55.7 41.4z" fill="white"></path><path d="M26.3 25.5c1.2 0.3 2.6 0.6 4.3 0.9 0 0 0.1 0 0.1 0 0.3 0 0.5-0.1 0.6-0.4 0.8-1.5 2.3-2.4 4-2.3 0.1 0 0.1 0 0.2 0 0.3 0 0.6-0.2 0.7-0.5 1-2.6 2.1-4.8 3.5-6.3 0.2-0.2 0.2-0.6 0.1-0.8-0.2-0.3-0.5-0.4-0.8-0.3-5.1 1.3-9.7 4.4-13 8.6-0.1 0.2-0.2 0.4-0.1 0.7S26.1 25.4 26.3 25.5zM37.3 17.7c-0.8 1.3-1.6 2.8-2.2 4.5-1.9 0.1-3.6 1.1-4.7 2.6-1-0.2-1.9-0.4-2.7-0.5C30.3 21.4 33.7 19.1 37.3 17.7z" fill="white"></path><path d="M62.5 27.6c-2.3 0.5-4.4 0.9-6.3 1.2-0.2 0-0.4 0.1-0.5 0.3-0.1 0.2-0.2 0.3-0.1 0.5 0.3 1.4 0.5 3 0.6 4.9 0 0.3 0.2 0.5 0.5 0.6 1.6 0.4 2.8 1.7 3.2 3.3 0.1 0.3 0.4 0.5 0.7 0.5h8.1c0.2 0 0.4-0.1 0.5-0.2 0.1-0.1 0.2-0.3 0.2-0.5-0.2-2.7-0.8-5.4-1.9-8-0.1-0.3-0.4-0.4-0.6-0.4-0.1 0-0.1 0-0.2 0-1.4 0-2.7-0.7-3.6-1.8C63 27.6 62.8 27.5 62.5 27.6zM66.5 31.1c0.8 2.1 1.4 4.2 1.6 6.4h-6.9c-0.6-1.7-1.9-3.1-3.6-3.7-0.1-1.4-0.3-2.7-0.5-3.8 1.6-0.2 3.3-0.6 5.2-1C63.4 30.3 64.9 31 66.5 31.1z" fill="white"></path><path d="M38.1 24.7c0.8 0.6 1.3 1.4 1.5 2.3 0.1 0.3 0.3 0.5 0.6 0.5 1.7 0.1 3.5 0.2 5.2 0.2 2.4 0 4.8-0.1 7.1-0.3 0.2 0 0.4-0.1 0.5-0.3 0.1-0.2 0.2-0.4 0.1-0.6-1.8-6.7-4.9-10.8-8.1-10.8-2.7 0-5.4 3.1-7.2 8.2C37.8 24.2 37.9 24.5 38.1 24.7zM45.1 17.1c1.9 0 4.6 2.8 6.5 9-3.5 0.3-7.1 0.3-10.8 0.1-0.3-0.9-0.8-1.6-1.5-2.2C41 19.7 43.2 17.1 45.1 17.1z" fill="white"></path><path d="M38.7 28.2c0-1.9-1.5-3.4-3.4-3.4-1.9 0-3.4 1.5-3.4 3.4s1.5 3.4 3.4 3.4C37.2 31.6 38.7 30.1 38.7 28.2zM35.3 30.2c-1.1 0-2-0.9-2-2s0.9-2 2-2c1.1 0 2 0.9 2 2S36.4 30.2 35.3 30.2z" fill="white"></path><path d="M21.7 35.2c1.4 0.5 2.5 1.7 2.8 3.2 0.1 0.3 0.4 0.5 0.7 0.5H33c0.4 0 0.7-0.3 0.7-0.7 0-1.6 0.2-3.3 0.4-5.1 0-0.3-0.1-0.6-0.4-0.7-1.5-0.6-2.6-2-2.8-3.6 0-0.3-0.3-0.5-0.6-0.6-2-0.4-3.8-0.8-5.5-1.2-0.3-0.1-0.6 0.1-0.8 0.3-1.3 2.2-2.2 4.6-2.7 7.1C21.2 34.7 21.4 35 21.7 35.2zM24.9 28.4c1.4 0.4 2.9 0.7 4.6 1 0.4 1.7 1.5 3.2 3.1 4-0.2 1.4-0.3 2.8-0.3 4.1h-6.6c-0.5-1.5-1.6-2.7-3-3.4C23.2 32.1 24 30.1 24.9 28.4z" fill="white"></path><path d="M55 26.5c0.1 0.3 0.4 0.5 0.7 0.5 0 0 0.1 0 0.1 0 1.8-0.2 3.7-0.6 6-1.1 0.3-0.1 0.6-0.4 0.5-0.8 0-0.6 0.1-1.3 0.4-1.9 0.1-0.3 0.1-0.6-0.1-0.8-3.2-3.3-7.2-5.7-11.5-6.8-0.3-0.1-0.6 0-0.8 0.3-0.2 0.3-0.1 0.6 0.1 0.8C52.3 19.1 53.9 22.4 55 26.5zM61.3 23.1c-0.2 0.5-0.3 1-0.4 1.5-1.8 0.4-3.3 0.7-4.8 0.9-0.9-3.1-2-5.8-3.4-7.9C56 18.8 58.9 20.7 61.3 23.1z" fill="white"></path><path d="M54.1 35.1c0.3-0.1 0.5-0.4 0.5-0.7-0.2-1.8-0.4-3.4-0.6-4.8-0.1-0.4-0.4-0.6-0.8-0.6-2.7 0.3-5.4 0.4-8 0.4-1.4 0-3-0.1-4.9-0.2-0.3 0-0.6 0.2-0.7 0.4-0.5 1.4-1.7 2.4-3.1 2.8-0.3 0.1-0.5 0.3-0.5 0.6-0.2 1.8-0.3 3.5-0.4 5 0 0.2 0.1 0.4 0.2 0.5 0.1 0.1 0.3 0.2 0.5 0.2h14.4c0.3 0 0.6-0.2 0.7-0.5C51.6 36.9 52.7 35.7 54.1 35.1zM50.1 37.5H36.9c0.1-1.2 0.1-2.4 0.3-3.7 1.5-0.5 2.7-1.6 3.4-3 1.7 0.1 3.2 0.2 4.5 0.2 2.5 0 5-0.1 7.5-0.3 0.2 1 0.3 2.2 0.5 3.5C51.7 34.7 50.6 36 50.1 37.5z" fill="white"></path><path d="M20.1 42.8c1.9 0 3.4-1.5 3.4-3.4 0-1.9-1.5-3.4-3.4-3.4-1.9 0-3.4 1.5-3.4 3.4C16.7 41.2 18.2 42.8 20.1 42.8zM20.1 37.4c1.1 0 2 0.9 2 2 0 1.1-0.9 2-2 2s-2-0.9-2-2C18.1 38.3 19 37.4 20.1 37.4z" fill="white"></path><path d="M14.2 39.4c0 2.4 1.5 4.6 3.7 5.5 1.6 8.7 7.3 16.3 15.2 20.1 0.2 0.1 0.4 0.1 0.6 0 0 0.2 0.2 0.4 0.4 0.5 3.5 1.5 7.1 2.3 10.9 2.3 3.8 0 7.4-0.8 10.9-2.3 0.2-0.1 0.4-0.3 0.4-0.5 0.1 0.1 0.2 0.1 0.3 0.1 0.1 0 0.2 0 0.3-0.1 9.6-4.6 15.7-14.5 15.7-25.2 0-3.5-0.7-7-1.9-10.3 1.2-1.1 1.9-2.7 1.9-4.3 0-3.3-2.7-5.9-5.9-5.9-0.8 0-1.6 0.2-2.4 0.5-5.2-5.2-12-8-19.3-8-13 0-24.2 9.2-27 22C15.8 34.7 14.2 36.9 14.2 39.4zM35.2 64.4l0.4-6.3c0.1-2 1.7-2.5 2.3-2.6 0.1 0 0.2 0 0.3 0 0.1 0 0.2 0 0.3-0.1l-0.4 0.3c-0.2 0.2-0.3 0.4-0.3 0.6 0 0.2 0.2 0.4 0.4 0.5l1.9 0.9-0.8 1.3c-0.1 0.2-0.1 0.4 0 0.7l3 6.4C39.9 65.9 37.5 65.3 35.2 64.4zM45.4 66.3c-0.1-0.1-0.3-0.2-0.4-0.2l-0.1 0c-0.1 0-0.2 0-0.2 0-0.2 0-0.3 0.1-0.4 0.2 0 0-0.1 0-0.1 0l0.5-9.4c0-0.2-0.1-0.4-0.3-0.6l-0.1-0.1 0.3-0.9h1l0.3 0.9-0.1 0.1c-0.2 0.1-0.3 0.4-0.3 0.6l0.5 9.4C45.8 66.3 45.6 66.3 45.4 66.3zM45 53.2c-2.4 0-4.4-2.3-4.4-5.1 0-2.8 2-5.1 4.4-5.1 2.4 0 4.4 2.3 4.4 5.1C49.4 50.9 47.4 53.2 45 53.2zM47.7 66.2l3-6.4c0.1-0.2 0.1-0.5 0-0.7l-0.8-1.3 1.9-0.9c0.2-0.1 0.4-0.3 0.4-0.5s-0.1-0.5-0.3-0.6l-0.4-0.3c0.2 0 0.4 0.1 0.5 0.1l0.2 0c1.1 0.2 2.3 1 2.4 2.6l0.4 5.2 0.1 1.1C52.6 65.3 50.2 66 47.7 66.2zM18.9 35c0.3-0.1 0.4-0.3 0.5-0.5 2.5-12.3 13.3-21.3 25.7-21.3 7.1 0 13.7 2.8 18.7 7.9 0.2 0.2 0.6 0.3 0.8 0.1 0.7-0.4 1.4-0.6 2.2-0.6 2.5 0 4.5 2 4.5 4.5 0 1.4-0.6 2.7-1.8 3.6-0.2 0.2-0.3 0.5-0.2 0.8 1.3 3.2 2 6.7 2 10.2 0 10.1-5.9 19.5-14.9 23.9 0 0-0.1 0-0.1 0.1L56 58c-0.2-2-1.6-3.6-3.6-3.9l-0.2 0c-0.4-0.1-1.6-0.2-2.4-0.3v0c0 0-0.1 0-0.1 0-0.1 0-0.2 0-0.3 0-0.3 0-0.6 0.3-0.7 0.6-0.1 0.3 0 0.6 0.2 0.7l1.3 1.1-1.6 0.8c-0.2 0.1-0.3 0.2-0.4 0.4-0.1 0.2 0 0.4 0.1 0.6l1 1.7-2 4.2-0.4-6.6 0.2-0.2c0.2-0.2 0.3-0.5 0.2-0.8l-0.6-1.9c0 0 0 0 0-0.1 2.4-0.8 4.1-3.3 4.1-6.2 0-2.8-1.5-5.1-3.7-6.1h3.3c1 2 3 3.2 5.3 3.2 2.2 0 4.2-1.2 5.3-3.2h7.2c-0.4 4.6-2.2 8.9-5.1 12.5-0.2-0.1-0.4-0.1-0.7-0.2-0.3 0-1.6-0.2-2.2-0.3l-0.7 0c1.3-0.7 2.3-2.3 2.3-4.1 0-2.5-1.7-4.5-3.9-4.5-2.1 0-3.9 2-3.9 4.5 0 1.8 0.9 3.3 2.2 4 0 0 0 0 0 0-0.2 0-0.3 0.1-0.4 0.2-0.1 0.1-0.2 0.3-0.2 0.5 0 0.3 0.3 0.6 0.6 0.6 0 0 0.1 0 0.1 0h1.5l2.4 0.1c0.5 0 1.8 0.2 2.2 0.3 0.2 0 0.5 0.1 0.7 0.2 0.3 0.1 0.6 0.1 0.8-0.2 3.4-4.1 5.4-9.1 5.8-14.4 0-0.2-0.1-0.4-0.2-0.5-0.1-0.1-0.3-0.2-0.5-0.2h-8.4c-0.3 0-0.5 0.2-0.6 0.4-0.7 1.7-2.3 2.8-4.2 2.8s-3.5-1.1-4.2-2.8c-0.1-0.3-0.4-0.4-0.6-0.4H24.9c-0.3 0-0.5 0.2-0.6 0.4-0.5 1.2-1.5 2.1-2.7 2.5-0.3 0.1-0.5 0.4-0.5 0.8 0.8 4.2 2.7 8.2 5.4 11.4 0.1 0.2 0.3 0.2 0.5 0.2 0.1 0 0.2 0 0.3-0.1 0.2-0.1 0.4-0.2 0.8-0.2 0.3 0 1.6-0.2 2.1-0.3l2.4-0.1 1.5 0c0 0 0 0 0 0 0.4 0 0.7-0.3 0.8-0.6 0-0.2-0.1-0.4-0.2-0.5 2-0.7 3.5-2.8 3.5-5.4 0-3.1-2.1-5.6-4.8-5.6-2.6 0-4.8 2.5-4.8 5.6 0 2.3 1.2 4.3 2.9 5.2l-1.4 0.1c-0.5 0-1.8 0.2-2.3 0.3-0.2 0-0.4 0.1-0.6 0.1-2.3-2.8-3.9-6.2-4.7-9.8 1.2-0.6 2.2-1.5 2.8-2.7H43c-2.2 0.9-3.7 3.3-3.7 6.1 0 2.9 1.7 5.4 4.1 6.2 0 0 0 0 0 0.1l-0.6 1.9c-0.1 0.3 0 0.6 0.2 0.8l0.2 0.2-0.4 6.6-2-4.2 1-1.7c0.1-0.2 0.1-0.4 0.1-0.6-0.1-0.2-0.2-0.3-0.4-0.4l-1.6-0.8 1.3-1.1c0.2-0.2 0.3-0.5 0.2-0.8-0.1-0.3-0.4-0.5-0.7-0.5l-0.4 0c0 0-0.1 0-0.1 0-0.6 0.1-1.6 0.2-2.2 0.3 0 0-0.1 0-0.1 0-2 0.3-3.5 1.8-3.6 3.9l-0.4 5.8c0 0 0 0-0.1-0.1-7.7-3.7-13.1-11-14.5-19.5 0-0.3-0.2-0.5-0.5-0.6-1.9-0.6-3.2-2.3-3.2-4.3C15.6 37.4 17 35.6 18.9 35zM57.9 53.1c-1.4 0-2.5-1.4-2.5-3.1 0-1.7 1.1-3.1 2.5-3.1 1.4 0 2.5 1.4 2.5 3.1C60.4 51.7 59.2 53.1 57.9 53.1zM33.3 53.1c-1.9 0-3.4-1.9-3.4-4.2 0-2.3 1.5-4.2 3.4-4.2 1.9 0 3.4 1.9 3.4 4.2C36.7 51.2 35.1 53.1 33.3 53.1z" fill="white"></path><path d="M74.9 31.3c0.4 0 0.8 0.1 1.1 0.1 0 0 0.1 0 0.1 0 0.3 0 0.6-0.3 0.7-0.6 0-0.4-0.2-0.7-0.6-0.8-0.4 0-0.8-0.1-1.2-0.1-0.4 0-0.7 0.3-0.8 0.6C74.2 30.9 74.5 31.3 74.9 31.3z" fill="white"></path><path d="M70.5 58c-0.6 0.5-1.3 0.9-1.9 1.4-0.3 0.2-0.4 0.7-0.2 1 0.1 0.2 0.4 0.3 0.6 0.3 0.1 0 0.3 0 0.4-0.1 0.7-0.5 1.3-0.9 2-1.4 0.3-0.2 0.4-0.7 0.1-1C71.3 57.8 70.8 57.7 70.5 58z" fill="white"></path><path d="M73.8 57c0.2 0 0.3-0.1 0.4-0.2 0.4-0.3 0.7-0.6 1.1-0.9 0.3-0.2 0.5-0.5 0.8-0.7 0.3-0.3 0.3-0.7 0.1-1-0.3-0.3-0.7-0.3-1-0.1-0.3 0.2-0.5 0.5-0.8 0.7-0.3 0.3-0.7 0.6-1 0.9-0.3 0.2-0.3 0.7-0.1 1C73.4 56.9 73.6 57 73.8 57z" fill="white"></path><path d="M65.7 61.4c-0.7 0.4-1.3 0.9-2 1.3-0.3 0.2-0.4 0.6-0.2 1 0.1 0.2 0.4 0.3 0.6 0.3 0.1 0 0.3 0 0.4-0.1 0.7-0.4 1.4-0.9 2-1.3 0.3-0.2 0.4-0.6 0.2-1C66.4 61.3 66 61.2 65.7 61.4z" fill="white"></path><path d="M9.9 76.3c-0.7-0.3-1.4-0.7-1.9-1.2-0.3-0.2-0.7-0.2-1 0.1-0.2 0.3-0.2 0.7 0.1 1 0.6 0.5 1.4 1 2.2 1.3 0.1 0 0.2 0.1 0.3 0.1 0.3 0 0.5-0.2 0.6-0.4C10.4 76.8 10.2 76.4 9.9 76.3z" fill="white"></path><path d="M78.2 53c0.2 0 0.4-0.1 0.5-0.2 0.6-0.6 1.1-1.2 1.7-1.8 0.3-0.3 0.2-0.7 0-1-0.3-0.3-0.7-0.2-1 0-0.5 0.6-1.1 1.1-1.6 1.7-0.3 0.3-0.3 0.7 0 1C77.9 52.9 78.1 53 78.2 53z" fill="white"></path><path d="M84.8 36c0.1 0.3 0.2 0.6 0.3 0.9 0.1 0.3 0.4 0.5 0.7 0.5 0.1 0 0.1 0 0.2 0 0.4-0.1 0.6-0.5 0.5-0.9-0.1-0.4-0.2-0.7-0.4-1.1-0.2-0.5-0.5-0.9-0.8-1.3-0.2-0.3-0.7-0.4-1-0.1-0.3 0.2-0.4 0.7-0.1 1C84.4 35.3 84.6 35.7 84.8 36z" fill="white"></path><path d="M86 39.6c-0.4-0.1-0.7 0.2-0.8 0.6-0.1 0.7-0.3 1.4-0.6 2.2-0.1 0.4 0 0.8 0.4 0.9 0.1 0 0.2 0 0.3 0 0.3 0 0.5-0.2 0.7-0.4 0.3-0.8 0.6-1.7 0.7-2.4C86.6 40 86.4 39.6 86 39.6z" fill="white"></path><path d="M33.1 75.8c-0.8 0.2-1.6 0.4-2.3 0.5-0.4 0.1-0.6 0.5-0.5 0.8 0.1 0.3 0.4 0.5 0.7 0.5 0 0 0.1 0 0.2 0 0.8-0.2 1.6-0.4 2.4-0.6 0.4-0.1 0.6-0.5 0.5-0.8C33.8 75.9 33.4 75.7 33.1 75.8z" fill="white"></path><path d="M81.8 48.3c0.1 0.1 0.3 0.1 0.4 0.1 0.2 0 0.4-0.1 0.6-0.3 0.5-0.7 1-1.4 1.4-2 0.2-0.3 0.1-0.8-0.2-1-0.3-0.2-0.8-0.1-1 0.2-0.4 0.6-0.8 1.3-1.3 1.9C81.4 47.6 81.5 48.1 81.8 48.3z" fill="white"></path><path d="M79.5 32.1c0.8 0.2 1.5 0.5 2.1 0.8 0.1 0.1 0.2 0.1 0.3 0.1 0.3 0 0.5-0.1 0.6-0.4 0.2-0.3 0-0.8-0.3-0.9-0.7-0.4-1.5-0.7-2.3-0.9-0.4-0.1-0.8 0.1-0.9 0.5S79.1 32 79.5 32.1z" fill="white"></path><path d="M38.8 74.1c-0.8 0.2-1.5 0.5-2.3 0.7-0.4 0.1-0.6 0.5-0.5 0.9 0.1 0.3 0.4 0.5 0.7 0.5 0.1 0 0.1 0 0.2 0 0.8-0.2 1.5-0.5 2.3-0.7 0.4-0.1 0.6-0.5 0.5-0.9C39.6 74.2 39.2 74 38.8 74.1z" fill="white"></path><path d="M49.9 69.9c-0.7 0.3-1.5 0.6-2.2 0.9-0.4 0.1-0.5 0.6-0.4 0.9 0.1 0.3 0.4 0.4 0.6 0.4 0.1 0 0.2 0 0.3-0.1 0.7-0.3 1.5-0.6 2.2-1 0.4-0.2 0.5-0.6 0.4-0.9C50.7 69.9 50.3 69.7 49.9 69.9z" fill="white"></path><path d="M15.5 77.6c-0.8-0.1-1.6-0.2-2.3-0.3-0.4-0.1-0.7 0.2-0.8 0.5-0.1 0.4 0.2 0.7 0.5 0.8 0.8 0.2 1.6 0.3 2.4 0.4 0 0 0 0 0.1 0 0.4 0 0.7-0.3 0.7-0.6C16.1 78 15.9 77.7 15.5 77.6z" fill="white"></path><path d="M26.8 77.1c-0.6 0.1-1.3 0.2-1.9 0.3-0.4 0-0.7 0.4-0.6 0.8 0 0.4 0.3 0.6 0.7 0.6 0 0 0.1 0 0.1 0 0.6-0.1 1.3-0.2 1.9-0.3l0.4-0.1L27.2 77 26.8 77.1z" fill="white"></path><path d="M5.7 70.5c0-0.4-0.3-0.7-0.7-0.7 0 0 0 0 0 0-0.4 0-0.7 0.3-0.7 0.7 0 0.9 0.2 1.8 0.5 2.6 0.1 0.3 0.4 0.4 0.7 0.4 0.1 0 0.2 0 0.3 0 0.4-0.1 0.5-0.5 0.4-0.9C5.8 71.9 5.7 71.2 5.7 70.5z" fill="white"></path><path d="M60.6 64.5c-0.7 0.4-1.4 0.8-2.1 1.2-0.3 0.2-0.5 0.6-0.3 0.9 0.1 0.2 0.4 0.4 0.6 0.4 0.1 0 0.2 0 0.3-0.1 0.7-0.4 1.4-0.8 2.1-1.2 0.3-0.2 0.4-0.6 0.3-1C61.3 64.4 60.9 64.3 60.6 64.5z" fill="white"></path><path d="M6.9 64.1c-0.3-0.2-0.8 0-0.9 0.3-0.4 0.8-0.7 1.6-1 2.3-0.1 0.4 0.1 0.8 0.4 0.9 0.1 0 0.2 0 0.2 0 0.3 0 0.6-0.2 0.7-0.5 0.2-0.7 0.5-1.4 0.9-2.1C7.4 64.7 7.2 64.3 6.9 64.1z" fill="white"></path><path d="M55.3 67.3c-0.7 0.4-1.4 0.7-2.1 1.1-0.3 0.2-0.5 0.6-0.3 0.9 0.1 0.2 0.4 0.4 0.6 0.4 0.1 0 0.2 0 0.3-0.1 0.7-0.4 1.5-0.7 2.2-1.1 0.3-0.2 0.5-0.6 0.3-0.9S55.7 67.1 55.3 67.3z" fill="white"></path><path d="M9.4 59.3c-0.5 0.7-1 1.3-1.5 1.9-0.2 0.3-0.2 0.8 0.2 1 0.1 0.1 0.3 0.1 0.4 0.1 0.2 0 0.4-0.1 0.6-0.3 0.4-0.6 0.9-1.2 1.4-1.9 0.2-0.3 0.2-0.7-0.1-1C10.1 59 9.7 59 9.4 59.3z" fill="white"></path><path d="M21.4 77.7c-0.8 0.1-1.6 0.1-2.4 0.1-0.4 0-0.7 0.3-0.7 0.7 0 0.4 0.3 0.7 0.7 0.7 0 0 0 0 0 0 0.8 0 1.6 0 2.4-0.1 0.4 0 0.7-0.4 0.7-0.7C22.1 78 21.8 77.7 21.4 77.7z" fill="white"></path><path d="M12.9 57.6c0.3-0.3 0.5-0.5 0.8-0.8 0.3-0.3 0.3-0.7 0-1-0.3-0.3-0.7-0.3-1 0-0.3 0.3-0.6 0.6-0.8 0.8-0.3 0.3-0.3 0.7 0 1 0.1 0.1 0.3 0.2 0.5 0.2C12.6 57.8 12.8 57.7 12.9 57.6z" fill="white"></path><path d="M77.6 55.1c-0.3-0.3-0.7-0.3-1 0-0.3 0.3-0.3 0.7 0 1 7.1 6.7 10.1 12.8 8.2 16.9-2 4.2-9.5 5.8-20 4.2-8-1.2-17-4.1-26-8.3-10.6-5-19.9-11.3-26-17.6-5.8-6-8.2-11.5-6.5-15.2 1.4-2.9 5.1-4.5 10.9-4.8 0.4 0 0.7-0.3 0.7-0.7 0-0.4-0.4-0.7-0.7-0.7C10.7 30.1 6.6 32.1 5 35.4c-2 4.3 0.4 10.2 6.7 16.8C18 58.7 27.4 65 38.2 70.1c1.8 0.9 3.6 1.6 5.4 2.4-0.5 0.2-0.9 0.4-1.4 0.5-0.4 0.1-0.6 0.5-0.4 0.9 0.1 0.3 0.4 0.5 0.7 0.5 0.1 0 0.2 0 0.2 0 0.8-0.3 1.5-0.5 2.3-0.8 0.2-0.1 0.3-0.2 0.4-0.3 6.7 2.6 13.3 4.5 19.3 5.4 2.8 0.4 5.4 0.6 7.7 0.6 7.1 0 12-1.9 13.7-5.6C88.2 68.9 85.2 62.3 77.6 55.1z" fill="white"></path></g></svg></g></svg></g></svg></g></svg></g></svg></g><g></g></svg></g><defs><mask></mask></defs><mask><g id="SvgjsG1238"><svg viewBox="0 0 395.52 247.2" height="247.2" width="395.52"><g><svg></svg></g><g><svg viewBox="0 0 395.52 247.2" height="247.2" width="395.52"><g transform="matrix(1,0,0,1,75.54432,79.2679793264636)"><svg viewBox="0 0 244.43135999999998 88.66404134707277" height="88.66404134707277" width="244.43135999999998"><g><svg viewBox="0 0 244.43135999999998 88.66404134707277" height="88.66404134707277" width="244.43135999999998"><g><svg viewBox="0 0 417.5900089767164 151.47490821978027" height="88.66404134707277" width="244.43135999999998"><g><svg viewBox="0 0 244.43135999999998 151.47490821978027" height="151.47490821978027" width="244.43135999999998"><g id="SvgjsG1237"><svg viewBox="0 0 244.43135999999998 151.47490821978027" height="151.47490821978027" width="244.43135999999998" id="SvgjsSvg1236"><g><svg viewBox="0 0 244.43135999999998 93.6142110876005" height="93.6142110876005" width="244.43135999999998"><g transform="matrix(1,0,0,1,0,0)"><svg width="244.43135999999998" viewBox="-0.1 -40.7 118.14 45.25" height="93.6142110876005" data-palette-color="#0074d9"></svg></g></svg></g><g transform="matrix(1,0,0,1,0,115.71427958431687)"><svg viewBox="0 0 244.43135999999998 35.76062863546339" height="35.76062863546339" width="244.43135999999998"><g transform="matrix(1,0,0,1,0,0)"><svg width="244.43135999999998" viewBox="-0.35 -29.6 259.40000000000003 37.95" height="35.76062863546339" data-palette-color="url(#41504012-159d-48bb-9884-3334a3e77a1b)"></svg></g></svg></g></svg></g></svg></g><g transform="matrix(1,0,0,1,266.53142849671633,13.905506835207511)"><svg viewBox="0 0 151.05858048 123.66389454936525" height="123.66389454936525" width="151.05858048"><g><svg xmlns="http://www.w3.org/2000/svg" xmlns:xlink="http://www.w3.org/1999/xlink" version="1.1" x="0" y="0" viewBox="4.3 11.799999999999997 82.45296025615374 67.50000000000001" style="enable-background:new 0 0 91 91;" xml:space="preserve" height="123.66389454936525" width="151.05858048" class="icon-icon-0" data-fill-palette-color="accent" id="SvgjsSvg1234"></svg></g></svg></g></svg></g></svg></g></svg></g><g></g></svg></g><defs><mask></mask></defs></svg></g></mask></svg></g></mask><linearGradient x1="0" x2="1" y1="0.5" y2="0.5" id="d4d4bb36-3806-4994-8005-d9528dee25fa"><stop stop-color="#ffa62e" offset="0"></stop><stop stop-color="#f71b3d" offset="1"></stop></linearGradient><rect width="395.52" height="247.20000000000005" fill="#ffffff" mask="url(#92693f8b-f2d0-4e30-b190-25d83d8c61cd)" data-fill-palette-color="accent"></rect></svg><rect width="395.52" height="247.2" fill="none" stroke="none" visibility="hidden"></rect></g></svg></g></svg>